<?xml version="1.0" encoding="UTF-8"?>
<svg id="Layer_1" data-name="Layer 1" xmlns="http://www.w3.org/2000/svg" viewBox="0 0 512 512">
  <defs>
    <style>
      .cls-1 {
        fill: #f7b826;
      }

      .cls-1, .cls-2, .cls-3 {
        stroke-width: 0px;
      }

      .cls-2 {
        fill: #e0912f;
      }

      .cls-3 {
        fill: #fce3a8;
      }
    </style>
  </defs>
  <g id="Close">
    <path class="cls-1" d="M94.15,393.69h323.7c10.67,0,19.33-8.65,19.33-19.33v-236.74c0-10.67-8.65-19.33-19.33-19.33h-67.36c-5.13,0-10.04,2.04-13.67,5.66l-38.68,38.68c-3.62,3.62-8.54,5.66-13.67,5.66H94.15c-10.67,0-19.33,8.65-19.33,19.33v186.73c0,10.67,8.65,19.33,19.33,19.33Z"/>
    <g>
      <path class="cls-2" d="M193.04,141.82h-85.2c-10.68,0-19.33,8.66-19.33,19.33v8c-7.92,2.4-13.69,9.78-13.69,18.48v-50c0-10.68,8.66-19.32,19.32-19.32h67.37c5.12,0,10.04,2.04,13.67,5.65l17.85,17.85Z"/>
      <path class="cls-3" d="M318.96,141.82l-20.83,20.84c-3.63,3.62-8.54,5.65-13.66,5.65H94.15c-1.96,0-3.86.29-5.64.84v-8c0-10.68,8.66-19.33,19.33-19.33h211.12Z"/>
    </g>
  </g>
</svg>