<?xml version="1.0" encoding="UTF-8"?>
<svg id="Livello_2" data-name="Livello 2" xmlns="http://www.w3.org/2000/svg" viewBox="0 0 1048 1048">
  <defs>
    <style>
      .cls-1 {
        stroke-width: 0px;
      }
    </style>
  </defs>
  <g id="Livello_1-2" data-name="Livello 1">
    <path class="cls-1" d="M518.38,0c65.06-.34,127.8,11.94,188.23,35.34,71.18,27.56,133.3,69.17,186.97,123.59,41.84,42.43,76.62,89.77,102.43,143.56,18.34,38.23,31.24,78.25,39.94,119.77,5.87,27.99,9.77,56.11,10.44,84.71.19,8.19,1.92,16.4,1.57,24.54-.79,18.42-1.85,36.87-3.86,55.19-4.16,37.99-12.9,74.98-25.7,111.03-12.71,35.79-29.82,69.35-50.33,101.24-19.64,30.53-41.89,59.07-67.11,85.11-18.9,19.51-39.09,37.69-60.74,54.27-18.31,14.03-37.03,27.47-57.14,38.65-18.91,10.51-38.72,19.39-58.09,29.07-22.18,11.08-45.92,17.69-69.63,24.29-12.91,3.6-26.08,6.27-39.19,9.1-24.72,5.34-49.78,7.83-75.03,8.33-15.45.31-30.92.28-46.38-.1-7.01-.17-13.98-1.59-20.97-2.43-11.98-1.44-24.03-2.49-35.94-4.39-29.19-4.65-57.79-11.81-85.65-21.71-41.04-14.57-79.82-33.7-116.15-57.8-24.04-15.95-46.38-34.02-67.64-53.47-37.18-34.02-68.45-72.83-94.6-115.92-32.13-52.94-53.75-109.73-64.9-170.7C1.59,581.23-1.09,540.95.39,500.4c2.74-74.96,20.3-146.17,54.71-213.11,21.14-41.12,47.37-78.6,78.15-112.97,34.4-38.39,73.23-71.56,117.24-98.48,56.39-34.49,117.02-57.81,182.39-68.31,12.96-2.08,25.99-3.99,39.06-5.1,15.44-1.31,30.95-1.66,46.44-2.43ZM518.7,6.62c-10.89,0-21.08-.51-31.2.09-32.21,1.92-64.11,6.4-95.15,15.3-20.76,5.95-41.37,12.67-61.57,20.33-15.54,5.89-30.66,13.12-45.39,20.87-53.5,28.16-100.91,64.35-141.91,108.93-21.56,23.44-40.82,48.62-58.18,75.24-14.05,21.53-26.07,44.23-36.48,67.76-26.47,59.85-41.17,122.33-42.51,187.91-.9,44.04,2.09,87.71,11.23,130.85,10.41,49.17,28.26,95.53,52.61,139.46,23.43,42.28,52.56,80.32,86.2,114.84,21.57,22.13,45.21,42.1,70.61,59.74,31.83,22.1,65.46,40.96,101.36,55.88,31.47,13.07,63.76,23.13,97.2,29.35,16.22,3.01,32.66,4.98,49.07,6.76,14.77,1.61,29.62,2.55,44.45,3.32,6.74.35,13.56-.19,20.31-.71,17.06-1.3,34.19-2.13,51.13-4.37,53.22-7.02,103.84-22.86,152.14-46.26,59.52-28.83,111.95-67.29,156.97-115.73,37.19-40.03,68.74-83.93,92.67-133.35,20.96-43.28,35.07-88.55,42.85-135.83,4.63-28.13,7.69-56.53,6.08-85.12-1.22-21.67-2.63-43.38-5.22-64.92-3.96-32.93-12.63-64.85-23.18-96.25-23.31-69.41-61-130.15-110.66-183.67-27.93-30.1-58.66-56.93-92.44-80.29-24.2-16.74-49.75-31.21-76.28-43.79-34.11-16.18-69.91-27.62-106.9-35.23-14.11-2.9-28.18-6.21-42.43-8.15-14.52-1.98-29.22-2.67-43.86-3.62-6.45-.42-12.94-.07-20.38-.07,3.35,12.88,6.55,25.15,9.82,37.74,10.89-6.32,21.09-12.24,31.29-18.17.24.23.47.46.71.68-5.82,10.6-11.65,21.2-17.74,32.29,12.5,3.35,24.28,6.5,36.81,9.85-12.57,3.52-24.38,6.83-36.74,10.29,6.34,11.17,12.44,21.91,18.54,32.65-.29.23-.57.45-.86.68-10.53-6.41-21.05-12.83-32.02-19.51-3.08,13-5.98,25.25-8.95,37.79,1.72.13,2.58.24,3.45.26,29.88.5,59.45,3.54,88.51,10.77,29.74,7.39,58.43,17.81,85.75,31.62,42.96,21.72,80.84,50.43,113.62,85.72,22.92,24.67,42.52,51.82,58.51,81.48,18.71,34.69,30.99,71.77,39.1,110.17,7.49,35.45,8.83,71.38,6.17,107.54-1.9,25.88-6.07,51.34-12.77,76.32-12.91,48.09-35.12,91.79-65.42,131.13-22.31,28.96-47.83,54.92-77.47,76.67-27.13,19.9-55.69,37.06-87.02,49.6-25.15,10.07-50.88,18.1-77.51,22.87-38.28,6.86-76.79,9.24-115.49,3.44-13.68-2.05-27.54-3.31-41.03-6.27-47.43-10.4-91.9-28.27-132.14-55.66-24.64-16.77-47.86-35.24-68.6-57.05-18.14-19.08-34.51-39.29-48.65-61.31-39.67-61.76-58.86-129.8-61.87-202.88-.98-23.89.29-47.58,3.94-71.09,9.25-59.55,30.88-114.24,64.91-164.12,20.22-29.65,44.49-55.56,71.78-78.45,22.04-18.49,46.25-34.12,71.84-47.57,22.7-11.93,46.4-21.25,70.99-28.16,14.42-4.05,29.2-6.88,43.91-9.84,7.93-1.6,16.01-2.76,24.07-3.33,12.18-.86,24.41-1.03,36.62-1.48,2.6-.1,3.28-1.45,2.68-3.84-2.5-10.02-5-20.04-7.43-30.08-.72-2.97-2.09-3.51-4.72-1.94-6.46,3.86-13.02,7.56-19.5,11.38-3.16,1.86-6.25,3.85-9.37,5.78l-.93-.86c6.48-10.66,12.95-21.32,19.96-32.85-12.35-3.2-24.18-6.27-36.02-9.33.04-.28.09-.56.13-.83,11.74-3.15,23.48-6.31,35.61-9.57-6.93-11.57-13.33-22.25-19.73-32.93.25-.22.5-.43.76-.65,10.48,6.09,20.96,12.19,32.37,18.83,3.09-12.77,6.02-24.86,8.96-37.02ZM521.66,915.46c99.1-.14,187.79-33.76,262.65-101.88,82.38-74.97,124.89-169.18,126.66-280.34,3.41-215.05-167.1-385.73-370.01-396.97-214.78-11.91-404.3,158.18-407.14,380.69-2.76,216.2,166.94,394.15,387.85,398.5ZM520.45,32.87c-.58,0-1.15-.01-1.73-.02-1.55,6.61-3.09,13.23-4.8,20.54-6.32-3.74-12.02-7.12-17.72-10.5-.31.3-.61.61-.92.91,3.52,5.98,7.04,11.96,10.66,18.11-7.24,1.91-13.95,3.69-20.67,5.47.04.47.08.94.12,1.41,6.81,1.87,13.61,3.74,20.77,5.7-3.77,6.39-7.13,12.09-10.49,17.79.34.33.67.67,1.01,1,5.58-3.27,11.16-6.54,17.08-10,1.98,7.1,3.79,13.6,5.6,20.1.35-.04.7-.08,1.05-.12,1.79-6.45,3.58-12.89,5.41-19.46,6.29,3.55,12.08,6.81,17.87,10.08.21-.29.42-.58.62-.87-3.08-5.93-6.17-11.86-9.58-18.42,7.08-2.07,13.39-3.9,19.7-5.74-.03-.42-.06-.85-.09-1.27-6.55-1.82-13.09-3.65-19.92-5.55,3.62-6.56,7.13-12.93,10.64-19.3l-.62-.6c-6.23,3.64-12.46,7.28-18.95,11.07-1.81-7.32-3.43-13.83-5.04-20.34Z"/>
    <path class="cls-1" d="M152.1,352.73c-5.66,14.35-12.06,28.34-19.04,42.06-.73-.22-1.46-.44-2.18-.66.22-2.18.3-4.39.68-6.55,1.23-6.98-.21-10.89-6.4-14.43-5.23-3-10.74-5.52-16.23-8.05-11.12-5.12-22.27-10.16-33.47-15.09-3.49-1.54-7.13-2.81-10.8-3.87-5.27-1.53-7.77-.41-10.76,4.22-1.03,1.6-2.15,3.15-3.95,5.78-.49-2.23-1.36-3.72-.94-4.6,6.61-14.13,10.71-29.49,20.18-42.22,9.27-12.47,24.45-11.53,33.86-3.19,4.28,3.79,6.66,8.55,6.81,14.38.08,3.52,1.41,5.33,5.53,4.74,8.61-1.22,17.37-1.46,25.9-3.04,8.95-1.66,17.55-4.75,25.8-11.17-7.71-4.17-14.68-7.94-21.65-11.71.15-.51.3-1.02.45-1.52,2.34.27,4.78.19,6.99.89,8.17,2.57,16.08,2.24,23.55-2,6.05-3.43,9.24-9.22,10.05-15.83,1.09-8.83-11.61-18.8-21-16.36-6.52,1.69-12.66,4.78-19.08,6.9-4.99,1.65-10.09,3.55-15.26,3.97-18.28,1.5-27.87-12.24-25.82-28.49,1.53-12.09,8.52-20.04,18.69-25.71.93-.52,2.77-.61,3.54-.04,4.61,3.44,9.07,7.09,13.48,10.79.82.69,1.17,1.93,1.74,2.92-.3.31-.6.63-.89.94-2.31-1.1-4.6-2.24-6.93-3.29-6.94-3.12-15.43-1.77-19.66,3.17-3.98,4.65-6.35,9.93-3.51,15.87,2.98,6.23,8.41,9.69,15.31,9.42,4.47-.18,9.01-1.39,13.29-2.82,6.42-2.14,12.56-5.12,18.98-7.29,9.67-3.28,19.39-1.94,26.37,5.11,8.41,8.5,9.79,19.56,5.35,30.91-2.28,5.84-5.37,11.26-10.71,14.87-5.76,3.9-7.66,10.41-10.5,16.04-3.96,7.84-9.93,12.56-18.07,14.19-10.97,2.19-22.07,3.76-33.17,5.19-6.17.79-9.78,4.29-12.33,9.46-1.15,2.34-.87,4.16,1.83,5.35,7.28,3.22,14.4,6.82,21.77,9.79,7.87,3.17,10.67,2.13,15.97-4.54,1.55-1.95,3.25-3.77,4.89-5.65.46.39.92.79,1.38,1.18ZM100.81,348.32c7.08-13.81,2.99-28.68-8.9-33.7-10.87-4.58-25.17,3.2-29.43,16.19,12.77,5.83,25.56,11.67,38.33,17.51Z"/>
    <path class="cls-1" d="M377.08,136.34c-3.49-7.85-6.74-15.16-9.98-22.46l1.77-1.21c1.46,1.52,2.93,3.04,4.38,4.57,3.03,3.17,5.76,6.73,9.15,9.45,6.75,5.4,14.5,5.31,22.25,2.55,7.78-2.77,11.49-13.77,7.42-21.69-2.57-5.01-6.4-8.9-11.79-10.83-8.04-2.88-16.22-5.38-24.23-8.35-16.99-6.29-19.16-29.58-8.77-41.21,9.18-10.28,20.56-11.81,33.09-10.01,1.17.17,2.73,1.77,3.05,2.98,1.34,5.13,2.36,10.35,3.3,15.58.2,1.12-.44,2.39-.93,4.73-1.49-1.99-2.21-2.85-2.82-3.79-1.45-2.23-2.59-4.7-4.3-6.69-3.57-4.15-7.52-8.58-13.62-7.33-6.88,1.42-12.96,4.68-14.25,12.63-1,6.19,3.37,14.75,9.23,17.4,6.42,2.91,13.18,5.08,19.77,7.63,4.12,1.59,8.24,3.18,12.29,4.96,15.11,6.64,16.51,25.69,9.64,36.34-8.29,12.86-20.66,16.63-35.09,15.71-2.34-.15-4.65-.68-6.88-1.02-.68,1.23-1.02,2.88-1.98,3.4-10.85,5.93-21.79,11.69-32.7,17.49-.49-.24-.99-.47-1.48-.71.41-1.59.38-3.54,1.32-4.71,5.23-6.48,5.45-7.74-.06-13.93-5.38-6.05-11.07-11.82-16.6-17.69-8.09,4.25-15.82,8.21-23.42,12.41-.9.5-1.64,2.4-1.49,3.52,1,7.29,1.87,14.64,3.56,21.79,2.03,8.59,4.71,9.71,12.98,6.62,2.63-.98,5.28-2.55,6.95,1.83-11.2,5.35-22.41,10.7-33.63,16.06-.35-.4-.71-.81-1.06-1.21,1.53-2.2,2.83-4.61,4.63-6.56,2.79-3.03,4.16-6.38,3.64-10.48-2.53-19.75-4.93-39.53-7.65-59.25-1.09-7.86-3.62-15.59-4.05-23.45-.21-3.77,2.91-7.75,4.72-11.53.09-.19,2.46.19,3.19.9,15.3,14.75,30.52,29.59,45.76,44.41,6.44,6.26,12.78,12.63,19.4,18.71,4.32,3.97,9.62,3.66,15.29,2.45ZM301.77,126.3c5.99-3.33,11.3-6.51,16.83-9.25,3.45-1.71,3.12-3.4.79-5.61-2.66-2.52-5.35-5.03-8.06-7.5-4.74-4.32-9.5-8.62-14.25-12.93-.42.18-.85.37-1.27.55,1.95,11.36,3.9,22.73,5.96,34.74Z"/>
    <path class="cls-1" d="M275.35,877.3c-8.23,4.89-15.62,9.16-22.89,13.62-9.56,5.86-19.1,11.76-28.5,17.87-6.27,4.07-7.71,6.09-10.8,12.87-8.11-5.95-16.89-10.88-24.24-17.65.28-.47.56-.93.84-1.4.89.17,1.81.25,2.68.52,8.44,2.57,11.46,1.82,16.68-5.45,4.12-5.74,7.77-11.84,11.42-17.91,6.63-10.99,13.05-22.1,19.66-33.09,3.76-6.24,4.17-12.14-.97-17.87-.95-1.06-1.52-2.47-1.77-4.32,12.78,7.87,25.19,16.16,36.99,25.33-.18.49-.36.99-.55,1.48-1.28-.27-2.7-.28-3.82-.86-8.97-4.64-12.77-4.09-18.23,4.23-10.02,15.28-19.63,30.82-29.41,46.26.24.32.49.63.73.95,1.31-.61,2.69-1.1,3.92-1.85,19.81-11.99,39.59-24.02,59.39-36.03,1.01-.61,2.01-1.3,3.12-1.65.88-.28,2.21-.49,2.78-.04.51.41.51,1.83.32,2.71-4.76,21.45-9.59,42.89-14.38,64.34-.56,2.5-.92,5.05-.52,7.99,1.32-1.52,2.68-3.01,3.95-4.57,9.33-11.44,18.65-22.89,27.96-34.36,6.6-8.13,6.5-12.14-.4-20.15-.77-.89-1.5-1.81-2.84-3.45,1.74,0,3.11-.44,3.83.07,9.42,6.6,18.76,13.33,28.1,20.05.32.23.47.7,1.34,2.05-2.3-.18-4.1.16-5.36-.51-4.57-2.43-8.74-1.3-12.46,1.38-3.44,2.48-6.69,5.38-9.51,8.54-10.92,12.23-21.68,24.6-32.38,37.02-1.9,2.2-3.78,4.71-4.7,7.4-1.63,4.75-.08,8.88,3.77,12.29,2.46,2.18,2.28,2.38-.07,5.39-7.5-5.61-15-11.23-22.87-17.12,7.13-7.06,7.37-16.48,9.26-25.31,3.11-14.56,6.16-29.14,9.22-43.72.27-1.28.39-2.59.75-5.04Z"/>
    <path class="cls-1" d="M893.01,189.48c-1.83-1.14-3.65-2.31-5.51-3.42-7.11-4.24-10.79-3.87-16.43,2.05-7.53,7.91-15,15.9-22.35,23.97-5.87,6.44-11.63,12.98-17.27,19.63-6.85,8.09-6.94,11.26-1.09,19.96.16.24.42.48.47.74.19,1.11.32,2.22.47,3.34-.98-.37-2.16-.51-2.91-1.15-4.4-3.71-8.66-7.59-13.04-11.32-5.05-4.31-10.2-8.52-15.26-12.82-1.65-1.41-3.16-2.98-4.73-4.48.09-.4.19-.8.28-1.2,1.33,0,2.77-.33,3.97.08,1.79.61,3.41,1.74,5.1,2.64,6.17,3.28,8.9,3.08,13.73-1.81,6.95-7.02,13.67-14.27,20.64-21.58-13.13-11.62-25.94-22.95-39.12-34.62-4.23,4.75-8.5,9.55-12.78,14.34-.2.22-.4.44-.59.66-11.8,13.19-11.82,13.44-1.08,28.99-2.15-.19-3.89.21-4.67-.48-10.05-8.93-19.98-17.99-29.88-27.07-1.02-.93-1.71-2.22-2.55-3.34l.82-1.3c2.21.99,4.53,1.81,6.62,3.02,5.61,3.23,7.87,3.49,12.77-.75,4.89-4.23,9.36-9,13.72-13.8,9.53-10.5,18.95-21.1,28.28-31.79,6.79-7.77,6.94-11.82,1.47-20.32-.94-1.46-1.57-3.12-2.41-4.82,2.63-.06,30.12,23.21,36.37,30.47-1.69,2.99-1.73,3.04-4.18,1.45-10.17-6.63-12.37-8.17-21.77,2.7-4.82,5.57-10.05,10.78-15.6,16.69,13.12,11.79,26.01,23.37,39.03,35.08,5.89-6.88,11.66-13.55,17.34-20.28,4.98-5.89,5.02-9.68.51-15.8-1.46-1.99-2.73-4.12-4.09-6.18.23-.36.46-.72.69-1.08,1.54.68,3.36,1.03,4.56,2.09,9.08,8.02,18.09,16.11,26.99,24.33,1.86,1.72,3.18,4.04,4.75,6.08-.42.38-.84.75-1.26,1.13Z"/>
    <path class="cls-1" d="M765.65,858.12c-1.06,1.65-1.86,3.57-3.22,4.92-5.78,5.69-6.72,9.08-2.7,15.94,9.83,16.8,20.04,33.38,29.97,50.12,4.31,7.27,9.83,11.12,18.54,7.92,1.21-.45,2.6-.41,3.91-.58.12-.02.26.09.7.25-.75.8-1.3,1.71-2.11,2.2-13.88,8.36-27.46,17.32-41.81,24.76-11.12,5.77-23.51,8.02-36.06,4.45-16.71-4.75-27.34-16.04-32.09-32.47-4.89-16.94-1.06-32.19,11.23-44.95,9.87-10.23,22.3-16.85,34.56-23.67,5.89-3.28,11.78-6.58,17.67-9.87.47.32.95.65,1.42.97ZM755.84,960.19c2.92-.56,6.47-.88,9.76-1.96,5.97-1.97,11.84-4.28,17.65-6.69,2.4-1,3.04-2.88,1.51-5.41-12.2-20.02-24.25-40.14-36.55-60.1-3.11-5.05-8.34-6.82-13.4-5.54-11.9,3.02-22.35,13.87-23.61,26.07-2.08,20.15,7.27,35.33,22.78,47.03,6.11,4.61,13.65,6.05,21.87,6.6Z"/>
    <path class="cls-1" d="M478.81,931.59c14.88,1.59,29.77,3.17,44.64,4.84.33.04.54,1.19.84,1.9-2.77.6-5.3,1.29-7.87,1.69-6.01.93-8.41,5.19-9.02,10.44-2.22,19.19-4.17,38.41-6.18,57.62-.17,1.61-.09,3.25-.07,4.87.1,8.99,1.64,10.74,10.55,12.98,1.26.32,2.2,1.95,3.28,2.97-.27.37-.54.75-.82,1.12-7.68-.71-15.37-1.37-23.05-2.14-4.66-.47-9.37-.74-13.92-1.73-5.72-1.24-11.33-3.05-16.94-4.75-14.45-4.38-15.51-27.83-3.39-36.21,2.88-1.99,6.11-3.47,9.28-5.24-4.94-13.94-10.8-27.39-19.98-38.85-3.99-4.98-10.2-8.18-15.38-12.22-1.24-.97-2.39-2.06-3.59-3.1l.88-1.5c6.97,1.66,14.04,3.01,20.89,5.06,5.39,1.62,9.56,5.29,12.14,10.39,5.19,10.24,10.31,20.52,15.33,30.85,1.65,3.39,9.63,8.31,13.16,7.5.79-.18,1.77-1.52,1.86-2.41.94-9.53,1.84-19.06,2.51-28.61.4-5.74-3.19-8.85-8.03-10.86-2.51-1.04-5.03-2.06-7.55-3.09l.42-1.54ZM487.06,1023.64c1.38-14.23,2.73-28.08,4.11-42.27-8.65-1.58-16.11.08-21.7,5.39-6.64,6.31-7.92,14.89-4.63,23.39,3.7,9.56,12.56,11.57,22.22,13.49Z"/>
    <path class="cls-1" d="M584.27,1026.76c-24.75,1.22-47.64-17.4-47.61-50.76.03-28.44,18.92-46.75,50.75-46.72,26.3.03,46.03,21.4,45.9,51.12-.11,25.13-20.32,47.11-49.03,46.37ZM618.19,980.34c-1.15-4.28-2.75-12.71-5.71-20.62-3.06-8.17-8.14-15.26-15.06-20.97-12.09-9.99-33.88-4.94-40.08,9.11-9.53,21.6-5.21,41.17,6.94,59.86,2.65,4.07,6.68,7.57,10.74,10.35,13.64,9.34,29.22,5.3,37.12-9.25,4.1-7.55,5.8-15.71,6.04-28.47Z"/>
    <path class="cls-1" d="M129.95,626.12c-15.75,28.97-31.5,57.94-47.68,87.69,2.15-.34,3.33-.33,4.36-.72,14.33-5.44,28.66-10.85,42.93-16.44,8.32-3.26,12.77-9.17,11.77-18.49-.15-1.41-.02-2.86-.02-5.5,1.63,1.41,2.81,1.93,3.13,2.78,4.37,11.85,8.63,23.74,12.91,35.62l-1.12,1.04c-1.16-.93-2.62-1.65-3.44-2.82-4.26-6.16-9.51-8.79-17.3-7.13-18.24,3.89-35.55,10.51-52.76,17.4-9.57,3.83-12.22,9.32-10.97,19.7.16,1.3.22,2.6.33,4-2.91,1.21-4.61.44-5.24-2.53-.06-.29-.14-.58-.24-.85-5.93-16.76-5.72-16.65,2.81-32.15,9.89-17.97,19.36-36.16,29-54.26,2.27-4.26,4.52-8.54,6.78-12.8-.23-.32-.47-.64-.7-.96-7.4,2.64-14.8,5.26-22.19,7.94-6.79,2.46-13.6,4.87-20.33,7.51-11.45,4.48-16.82,9.52-14.78,22.11.17,1.05-.6,2.26-1.53,3.35-5.16-11.39-9.92-22.63-12.9-34.48.49-.26.97-.53,1.46-.79,1.7,1.52,3.44,3,5.09,4.56,3.14,2.98,6.68,4.21,10.94,2.8,13.28-4.41,26.65-8.58,39.84-13.24,11.65-4.12,23.12-8.78,34.68-13.16,1.34-.51,2.78-.74,4.17-1.1.33.32.65.63.98.95Z"/>
    <path class="cls-1" d="M994.05,446.36c-16.7,1.86-33.4,3.65-50.09,5.6-8.03.94-13.16,5.21-14.93,13.43-.43,2.01.09,5.51-4.33,5.29-1.03-12.87-2.05-25.74-3.08-38.61.42-.16.84-.33,1.26-.49.88,1.33,2.07,2.54,2.59,4,2.36,6.7,7.32,10.18,14.07,10.13,12.53-.1,25.07-.69,37.59-1.39,6.91-.39,13.83-1.16,20.67-2.23,7.32-1.15,12.36-5.13,14.03-12.82.54-2.47,1.91-4.76,2.89-7.13.5.05.99.11,1.49.16.9,6.88,1.89,13.75,2.62,20.64.1.9-.96,2.07-1.73,2.89-18.74,19.87-37.52,39.7-56.26,59.57-2.17,2.3-4.15,4.77-6.21,7.17.2.36.41.72.61,1.08,7.12-.65,14.25-1.26,21.37-1.94,9.67-.93,19.34-1.97,29.01-2.85,7.7-.7,12.51-5.65,14.19-14.68.31-1.66,1.12-3.23,1.7-4.84.58.12,1.17.24,1.75.36,1.23,12.11,2.46,24.22,3.69,36.33-.37.26-.75.53-1.12.79-1.21-1.33-2.83-2.47-3.56-4.03-2.29-4.85-6.08-7.22-11.24-7.12-10.89.21-21.77.58-32.65,1.05-8.79.38-17.58.8-26.34,1.56-8.25.71-16.46,1.87-26.29,3.01,23.08-25.46,47.06-48.49,69.41-73.01-.37-.63-.74-1.27-1.11-1.9Z"/>
    <path class="cls-1" d="M831.84,257.36c1.85,1.2,3.9,2.18,5.53,3.64,5.86,5.25,9.61,6.14,16.21,1.75,17.57-11.66,34.94-23.63,52.23-35.7,4.88-3.41,5.51-7.58,3.26-13.33-.93-2.37-1.65-4.82-1.64-7.71,16.2,17.83,28.47,38.48,43.46,57.6-5.81,3.48-11.67,7.04-17.6,10.47-.51.29-1.77.02-2.17-.44-.4-.45-.19-1.47-.15-2.24.01-.23.36-.45.57-.66,8.92-9.08,8.42-12.26,1.46-24.21-3.09-5.31-7.17-10.04-11.01-15.32-10.58,7.45-20.63,14.54-31.48,22.19,5.12,6.17,9.89,12.33,15.13,18.04,2.45,2.67,5.91,3.51,9.69,1.86,1.57-.69,3.5-.54,5.27-.77.19.48.38.95.58,1.43-8.67,6.09-17.33,12.18-26,18.27-.45-.23-.9-.45-1.35-.68.51-1.69.54-3.83,1.62-4.97,3.7-3.92,3.44-8.2,1.08-12.22-3.04-5.19-6.68-10.04-10.32-14.84-.52-.68-2.8-.85-3.68-.3-6.89,4.26-13.97,8.34-20.34,13.3-6.55,5.1-7.37,10.29-3.11,17.33,2.88,4.75,6.35,9.34,10.38,13.12,6.43,6.01,14.22,7.26,22.61,4.11,2.48-.93,5.05-2.84,8.43.41-7.11,3.23-13.75,6.55-20.62,9.29-6.55,2.61-6.73,2.39-10.73-3.23-10.88-15.27-21.73-30.56-32.52-45.9-2.08-2.96-3.81-6.17-5.7-9.26.31-.34.61-.68.92-1.03Z"/>
    <path class="cls-1" d="M907.44,851.67c-.59,1.23-.91,2.74-1.82,3.63-7.91,7.75-15.94,15.38-23.92,23.07-1.49,1.43-2.8,3.05-4.34,4.43-.99.88-2.23,1.48-3.35,2.21l-1.22-.93c1.48-2.9,2.81-5.9,4.47-8.69,3.37-5.68,3.4-9.03-1.07-13.93-9.75-10.69-19.04-21.92-29.73-31.6-18.55-16.78-37.05-11.63-49.56,8.33-3.31,5.28-3.41,11.28-.51,16.98,1.6,3.15,3.19,6.4,5.39,9.12,10.52,12.99,21.92,25.16,35.17,35.46,4.49,3.5,9.71,3.57,14.8.63,2.57-1.49,5.29-2.71,8.42-3.42-7.19,11.26-18.37,18.4-26.89,28.17-.5-.16-1-.33-1.49-.49.2-1.61.05-3.38.68-4.79,2.08-4.67,2.56-9.1-1.06-13.21-8.49-9.61-17.18-19.06-25.49-28.82-4.95-5.82-9.77-11.86-13.86-18.3-3.89-6.13-3.32-13.2-2.15-20.21,2.56-15.36,25.72-33.21,39.89-31.91,8.17.75,14.79,4.12,20.4,9.48,11.31,10.81,22.24,22.02,33.38,33.01,8,7.9,9.96,8.12,19.63,2.67,1-.56,2.04-1.06,3.06-1.58.39.23.79.47,1.18.7Z"/>
    <path class="cls-1" d="M104.18,392.43c8.3,3.24,16.62,6.42,24.87,9.8.67.28,1.32,1.9,1.16,2.74-4.32,22.76-8.74,45.49-13.18,68.23-.13.66-.61,1.25-1.98,1.98-.42-1.87-1.03-3.71-1.23-5.6-.96-9.04-2.61-11.55-11.26-13.43-18.72-4.07-37.49-8.02-56.34-11.4-11.55-2.07-13.4-.63-18.78,9.84-.47.91-1,1.79-1.55,2.76-2.8-1.37-1.04-2.65-.57-4.52.87-3.43.12-7.24.74-10.77,3.12-17.87,6.45-35.7,9.86-54.36,7.4,1.6,14.8,3.19,22.19,4.78.09.4.17.81.26,1.21-1.87.49-3.72,1.33-5.6,1.39-8.14.28-11.34,2.08-13.87,9.75-2.11,6.41-3.17,13.15-5.02,19.65-1.14,4.02.52,5.84,4.11,6.56,10.83,2.17,21.68,4.26,33.13,6.51,1.18-7.54,2.75-14.75,3.29-22.03.31-4.15-1.54-8.03-5.98-9.99-1.5-.66-2.69-2.05-4.02-3.1.17-.47.33-.93.5-1.4,10.33,1.92,20.66,3.85,31,5.77.05.46.11.91.16,1.37-1.17.39-2.3.96-3.5,1.14-5.66.88-9.51,3.75-10.9,9.5-1.28,5.3-2.6,10.59-3.84,15.9-.48,2.03-.37,3.87,2.26,4.36,8.83,1.64,17.63,3.51,26.5,4.85,5.56.84,9.46-1.8,12.03-6.96,3.95-7.94,4.43-16.2,2.7-24.6-1.38-6.73-6.14-10.82-12.18-13.7-2.18-1.05-4.05-2.74-6.07-4.14.37-.69.74-1.38,1.1-2.08Z"/>
    <path class="cls-1" d="M666.85,37.67c.99,18.71,1.95,37.12,2.94,55.53.7,12.96,1.49,25.92,2.18,38.89.37,6.9,5.01,10.66,10.44,13.88-.03.42-.06.84-.09,1.27-1.22.23-2.57.93-3.65.63-10.78-3-21.53-6.14-32.25-9.35-1.22-.36-2.22-1.43-3.44-2.26.65-.61.82-.92,1.02-.93,11.19-.73,12.4-1.94,12.7-13.28.15-5.74.13-11.49.11-17.23-.01-4.01-1.11-6.86-5.82-7.9-6.6-1.46-12.98-3.88-19.52-5.63-1.24-.33-3.51.09-4.1.97-4.26,6.36-8.66,12.69-12.13,19.48-3.61,7.06-2.11,10.2,4.7,13.9,1.67.91,3.11,2.27,4.65,3.42-.2.37-.39.74-.59,1.12-2.38-.52-4.79-.93-7.14-1.57-8.24-2.26-16.48-4.53-24.66-6.99-1.39-.42-2.49-1.79-3.63-3.64,12.99,1.15,18.99-7.22,25.09-15.98,12.31-17.68,24.99-35.1,37.47-52.66,1.18-1.66,2.01-3.56,3.06-5.31.41-.68.85-1.54,1.5-1.82,3.46-1.52,7-2.88,11.15-4.56ZM654.68,56.06c-.38-.1-.77-.19-1.15-.29-6.73,9.38-13.45,18.76-20.72,28.9,8.19,2.6,15.55,4.93,23.58,7.48-.59-12.5-1.14-24.29-1.7-36.09Z"/>
    <path class="cls-1" d="M102.77,795.58c-3.88.02-22.79-25.5-23.46-32.15,1.99,1.05,3.77,1.63,5.11,2.75,3.95,3.3,8.2,3.28,12.29.91,11.23-6.51,22.23-13.39,33.45-19.91,7.74-4.5,15.26-9.44,24.49-10.87,9.46-1.46,17.24,1.6,23.8,7.98,8.31,8.08,14.37,17.71,16.68,29.16,1.72,8.56-.22,16.89-6.88,22.7-7.06,6.17-15.02,11.32-22.75,16.7-7.14,4.97-14.63,9.44-21.69,14.52-8.96,6.45-9.4,8.66-5.32,19.07.42,1.06.75,2.16,1.12,3.24-.29.33-.59.67-.88,1-1.2-.83-2.73-1.42-3.53-2.53-4.21-5.85-8.24-11.85-12.34-17.78-3.9-5.65-7.81-11.29-11.72-16.94.38-.49.76-.98,1.15-1.46,1.86.95,4.11,1.51,5.53,2.91,7.3,7.19,10.68,8.09,19.35,2.46,11.99-7.79,24.07-15.61,35.16-24.59,16.76-13.55,13.57-39.53-5.5-49.7-4.62-2.46-9.59-2.9-14.52-.84-16.04,6.7-30.6,16.05-44.3,26.53-9.94,7.6-11.65,9.61-6.17,24.37.3.8.6,1.59.93,2.45Z"/>
    <path class="cls-1" d="M1026.3,591.64c-14.43,3.17-28.24,6.17-42.04,9.23-14.82,3.29-29.6,6.73-44.44,9.92-8.71,1.87-14.35,7.06-17.28,15.56-.41-.04-.81-.07-1.22-.11-.41-1.46-1.34-2.98-1.16-4.36,1.53-11.84,3.25-23.65,5.15-37.1,1.66,2.25,3.26,3.55,3.72,5.17,1.93,6.75,3.84,8.36,10.73,7.22,6.97-1.15,13.91-2.59,20.76-4.3,1.36-.34,3.03-2.29,3.28-3.73,1.37-7.84,2.29-15.77,3.47-23.64.39-2.56-.39-4.24-2.8-5.23-7.48-3.09-14.9-6.35-22.45-9.27-3.33-1.29-7.03,1.08-9.02,5.28-.63,1.33-1.04,2.76-1.54,4.14-.49,1.37-.96,2.74-1.78,5.07-1.09-1.45-2.38-2.38-2.3-3.17,1.12-11,2.42-21.99,3.74-32.97.08-.66.72-1.26,1.55-2.65,1.16,2.51,2.28,4.49,3,6.61,1.75,5.12,4.75,9.16,9.62,11.62,16.32,8.22,32.67,16.37,48.99,24.59,6.58,3.31,12.82,7.66,19.75,9.8,6.51,2.01,8.77,6.87,12.26,12.31ZM974.2,566.07c-.83,8.77-1.58,16.72-2.4,25.39,12.23-3,23.09-5.66,33.94-8.31.05-.43.1-.85.15-1.28-10.22-5.09-20.44-10.19-31.69-15.79Z"/>
    <path class="cls-1" d="M347.69,996.42c-1.42,0-2.97.37-4.25-.06-6.7-2.25-13.31-4.76-19.99-7.07-2.78-.96-5.69-1.54-8.45-2.56-1.61-.59-3.02-1.72-4.47-3.26,10,1.06,14.26-4.74,17.06-12.67,4.31-12.23,8.69-24.44,13.2-36.61,1.38-3.72,3.04-7.38,4.97-10.84,6.93-12.39,17.16-17.66,31.03-14.9,7.69,1.53,15.52,3.85,22.45,7.43,13.31,6.86,18.06,17.68,14.34,32.24-3.13,12.26-7.55,24.19-11.34,36.28-1.45,4.64-3.02,9.27-3.98,14.02-1.33,6.56.64,10.3,6.38,13.65.76.45,1.71.71,2.28,1.32.98,1.04,1.74,2.3,2.59,3.47-1.44.02-3,.42-4.29,0-11.62-3.8-23.22-7.69-34.77-11.69-1.87-.65-3.5-1.97-5.24-2.99.18-.45.36-.9.54-1.35,2.99.32,6,.54,8.97.98,4.55.67,7.69-1.22,9.83-5.12.57-1.03,1.33-2.01,1.67-3.11,4.78-15.47,10.35-30.76,14.03-46.49,5.5-23.5-18.42-35.92-33.87-34.06-6.94.83-11.6,5.4-14.59,11.09-3.69,7.01-6.72,14.42-9.36,21.9-3.09,8.75-5.51,17.74-8.12,26.65-2.4,8.22-.67,12.8,6.42,17.39,2.33,1.51,4.71,2.93,7.07,4.4-.04.65-.08,1.3-.12,1.95Z"/>
    <path class="cls-1" d="M96.22,516.31c-3.23-1.65-5.11-2.81-7.13-3.6-14.26-5.62-28.51-11.28-42.86-16.68-4.1-1.54-8.51-2.27-12.8-3.34-3.97-.98-6.21,1.08-7.32,4.56-.85,2.66-1.18,5.48-2.02,8.14-.27.85-1.41,1.43-2.15,2.13-.59-.84-1.68-1.68-1.69-2.53-.12-10.64-.1-21.28-.02-31.92,0-.81.82-1.62,1.26-2.43.74.48,1.98.82,2.16,1.45,2.29,8.32,8.69,12.47,15.94,15.44,24.56,10.06,49.21,19.89,73.8,29.86,2.11.86,4.07,2.09,7.19,3.72-10.07,4.11-18.95,7.8-27.86,11.37-17.24,6.92-34.52,13.75-51.76,20.68-2.73,1.1-5.45,2.31-7.98,3.8-4.29,2.53-7.83,5.7-8.76,11.06-.2,1.17-1.67,2.13-2.55,3.18-.38-.23-.77-.46-1.15-.7-.11-.68-.32-1.36-.32-2.04-.02-12.12-.06-24.24.05-36.36.01-1.17,1.06-2.33,1.62-3.5.78,1.02,1.78,1.95,2.28,3.1.76,1.74.87,3.81,1.81,5.41,1.82,3.06,4.11,5.32,8.31,3.67,10.69-4.19,21.46-8.17,32.18-12.26,7.3-2.78,14.6-5.57,21.87-8.45,2.28-.9,4.44-2.1,7.9-3.77Z"/>
    <path class="cls-1" d="M938.93,665.51c-7.49.75-13.93.63-19.93,2.18-8.35,2.14-14.85,6.98-16.86,16.27-1.56,7.24,2.09,14.65,8.9,17.81,5.61,2.6,11.15,2.55,16.6-.03,3.05-1.44,5.85-3.41,8.74-5.17,5.16-3.13,10.09-6.7,15.49-9.33,18.25-8.91,37.27-.32,38.41,22.5.59,11.88-5.29,20.5-14.13,27.52-.78.62-2.34,1.06-3.15.7-5.5-2.45-10.92-5.09-16.31-7.8-.79-.4-1.23-1.47-2.51-3.08,4.82.41,8.74.43,12.53,1.13,7.71,1.43,17.47-5.13,18.25-14.7.68-8.33-6.17-16.06-15.54-15.61-5.42.26-10.98,3.05-15.97,5.68-6.23,3.29-11.79,7.84-17.91,11.38-6.43,3.71-13.32,5.18-20.84,3.14-10-2.71-17.54-11.5-18.42-21.87-1.36-16,4.26-28.63,17.89-37.36,1.16-.75,3.09-.92,4.48-.59,5.88,1.39,11.71,3,17.5,4.72.99.29,1.7,1.51,2.77,2.52Z"/>
    <path class="cls-1" d="M904.36,819.19c6.89.66,13.83,3.92,20.47-1.1,6.39-4.83,9.96-11.48,13.54-18.88-7.39-4.51-14.62-8.97-21.9-13.35-12.38-7.47-24.76-14.95-37.2-22.32-10.93-6.47-14.02-5.97-23.07,3.2-.8.81-1.7,1.53-3.39,3.04-.15-1.95-.7-3.32-.23-4.03,8.48-13.14,17.08-26.21,25.68-39.27.13-.19.52-.21,1.53-.6,0,2.15.53,4.21-.08,5.85-4.72,12.55-1.18,15.55,7.52,21.26,13.93,9.15,28.23,17.75,42.4,26.54,5.12,3.18,10.3,6.26,15.93,9.68,3.27-5.48,6.59-10.35,9.21-15.58,3.61-7.19.82-13.41-3.89-19.12-1.47-1.78-3.48-3.75.42-5.73,6.98,5.58,14.08,11.25,22.21,17.76-6.5.07-9.4,3.11-11.95,7.2-10.39,16.65-21.14,33.08-31.39,49.82-1.68,2.74-1.52,6.59-2.31,10.42-7.82-4.31-15.96-8.8-24.09-13.29.21-.5.41-.99.62-1.49Z"/>
    <path class="cls-1" d="M716.73,54.52c3.65,10.7,12.82,12.74,20.51,16.76,10.32,5.4,20.6,10.86,30.95,16.19,6.49,3.34,12.71,7.7,21.35,5.86-3.49,8.95-5.54,17.61-11.06,25.05-1.12-7.24,1.02-15.4-5.32-20.69-5.43-4.53-11.69-8.07-18.05-12.36-5.11,10.48-9.56,19.77-14.16,28.98-6.06,12.13-12.28,24.19-18.38,36.31-3.55,7.06-2.23,12.5,3.83,17.59,1.98,1.66,3.59,3.76,5.38,5.67-.4.5-.81,1-1.21,1.51-14.77-7.68-29.54-15.36-44.3-23.04l.62-1.55c2.96.6,5.93,1.15,8.86,1.83,4.55,1.05,8.54.4,11.37-3.68,2.35-3.38,4.98-6.64,6.84-10.29,9.77-19.18,19.33-38.47,29.47-58.73-6.97-2.88-13.51-6.18-20.42-8.29-8.49-2.59-12.99,5.39-19.23,8.78-.41-.27-.82-.54-1.22-.81,4.51-7.99,9.03-15.97,14.18-25.08Z"/>
    <path class="cls-1" d="M903.8,314.19c3.19,2.01,1.9,3.55.04,5.24-5.89,5.36-10.46,11.5-12.28,19.51-1.93,8.49,2.67,18.63,10.53,22.32,6.72,3.16,16.87-.25,20.58-7.5,2.12-4.13,3.58-8.73,4.6-13.28,1.34-6.01,1.96-12.18,2.9-18.28,2.6-16.98,21.93-26.71,38.7-16.58,11.58,7,15.37,18.06,16.13,30.71.05.89-.31,2.39-.9,2.66-6.76,3.03-13.6,5.88-20.43,8.77l-1.19-1.6c.98-1.14,1.86-2.39,2.96-3.4,2.8-2.58,6.09-4.73,8.46-7.64,4.08-5.02,4.62-10.91,1.45-16.57-3.03-5.42-7.9-8.39-14.31-7.75-6.18.61-11.24,3.73-13.15,9.61-2.4,7.39-3.67,15.14-5.38,22.75-.71,3.16-1.21,6.38-1.95,9.53-4.94,21.23-29.54,24.98-42.78,12.98-10.58-9.59-15.62-21.63-12.95-36.16.24-1.29.98-2.84,2-3.57,5.59-4.05,11.35-7.88,16.98-11.75Z"/>
    <path class="cls-1" d="M210.59,134.11c-5.63,5.55-11.34,10.28-15.92,15.93-5,6.16-.64,13.6-.07,20.49-.67.18-1.33.35-2,.53-4.77-7.25-9.53-14.5-14.73-22.41,12.01.19,17.86-9.2,25.85-14.75,11.5-7.99,22.41-16.87,33.3-25.71,2.59-2.11,4.1-5.55,6.34-8.72,5.29,5.87,10.94,12.03,16.39,18.36.55.64-.15,2.35-.27,3.54-4.88-2.49-9.02-5.01-13.48-6.69-1.91-.72-4.84-.37-6.68.64-6.14,3.39-11.99,7.3-17.84,10.94.47,1.33.53,1.8.77,2.12,14.12,18.57,28.22,37.16,42.42,55.68,3.17,4.13,6.56,8.31,12.72,6.97,2.11-.46,4.09-1.52,6.16-2.21,1.82-.6,3.68-1.07,5.52-1.59.15.36.3.72.45,1.09-13.1,9.87-26.21,19.74-39.31,29.61-.38-.29-.76-.58-1.14-.87,1.05-1.76,1.87-3.73,3.19-5.25,6.51-7.52,6.92-12.15.89-20.44-11.3-15.52-22.78-30.91-34.21-46.33-2.53-3.41-5.16-6.75-8.35-10.93Z"/>
    <path class="cls-1" d="M136.72,202.59c.84-1.45,1.48-3.08,2.56-4.33,8.15-9.35,16.36-18.64,24.63-27.88.64-.72,1.88-.9,2.84-1.33.04,1.18.47,2.53.06,3.51-4.67,11.08-4.1,13.88,4.74,21.82,12.3,11.05,24.6,22.1,36.91,33.14,1.1.99,2.24,1.92,3.39,2.85,8.57,6.96,11.04,7.09,20.49,1.45,1.05-.63,2.48-.61,3.74-.89-.38,1.2-.42,2.7-1.19,3.55-9.12,10.04-18.36,19.98-27.72,30.11-1.07-.84-1.96-1.53-3-2.35.69-1.16,1.25-2.17,1.87-3.15,5.15-8.06,4.72-12.41-2.37-18.92-6.62-6.08-13.51-11.87-20.23-17.84-6.07-5.39-12.1-10.83-18.14-16.25-1.32-1.18-2.53-2.53-3.97-3.52-10.11-6.96-10.15-7.6-19.46-1.48-1.34.88-2.83,1.53-4.25,2.28-.29-.26-.59-.51-.88-.77Z"/>
    <path class="cls-1" d="M117.02,567.29c1.22,6.61,2.46,13.21,3.64,19.82,1.27,7.11,2.55,14.22,3.62,21.36.2,1.34-.6,2.84-.94,4.26-.43-.08-.87-.16-1.3-.23-1.32-2.62-2.52-5.3-3.97-7.84-2.71-4.77-6.61-7.44-12.37-6.55-12.67,1.95-25.35,3.84-38.01,5.84-7.56,1.2-15.14,2.4-22.64,3.91-8.35,1.68-11.68,6.11-11.72,14.78,0,1.13-.15,2.27-1.28,3.97-.92-1.21-2.47-2.32-2.67-3.64-1.94-12.83-3.68-25.7-5.4-38.56-.13-1.01.32-2.09,1.6-3.36.76,1.48,1.53,2.96,2.27,4.45,4.2,8.5,7,10.31,16.33,9.35,9.02-.92,18.01-2.17,26.97-3.55,10.33-1.6,20.61-3.46,30.9-5.29,7.39-1.31,10.9-5.06,12.01-12.5.32-2.12.72-4.22,1.08-6.33.63.04,1.25.07,1.88.11Z"/>
    <path class="cls-1" d="M918.69,428.55c-5.45-7.73-14.51-40.28-12.93-43.27,2.66,3.23,4.94,6.72,7.95,9.4,1.71,1.52,4.85,2.83,6.9,2.34,17.48-4.16,34.86-8.72,52.24-13.24,3.28-.85,6.48-1.98,9.69-3.08,9.66-3.32,11.87-6.35,12.16-16.45.03-1.11.22-2.22.34-3.48,2.83,1.73,13.41,35.4,13.48,43.59-1.82-1.56-3.24-2.3-3.97-3.48-6.17-9.79-8.86-11.16-20.07-8.02-18.3,5.13-36.52,10.54-54.72,16.04-8.96,2.7-10.57,5.29-10.61,14.82,0,1.61-.31,3.21-.47,4.82Z"/>
    <path class="cls-1" d="M631.5,920.27c14.3-4.68,28.6-9.35,42.9-14.03.32.51.63,1.02.95,1.52-1.39,1.16-2.63,2.61-4.2,3.42-6.75,3.51-9.05,7.39-6.64,14.65,6.55,19.72,13.64,39.26,20.38,58.92,2.24,6.52,6.41,9.38,13.32,8.6,2.33-.26,4.76.32,7.15.51.02.45.04.9.05,1.35-14.16,4.68-28.32,9.35-42.47,14.03-.24-.42-.47-.85-.71-1.27,1.51-1.24,2.94-2.58,4.53-3.7,5.65-3.97,7.63-8.3,5.48-14.83-6.36-19.32-12.85-38.6-19.68-57.76-3.05-8.55-7.19-10.6-16.27-9.79-1.02.09-2.07.08-3.09.01-.52-.03-1.03-.3-1.55-.47-.05-.39-.11-.78-.16-1.18Z"/>
    <path class="cls-1" d="M140.48,529.19c-1.45-34.92,2.54-69.34,11.47-103,18.33-69.07,52.65-128.9,104.82-178.17,17.54-16.57,35.94-32.09,56.43-44.83,35.75-22.24,73.36-40.47,114.78-49.55,16.38-3.59,32.87-7.02,49.5-8.98,15.31-1.81,30.87-2.26,46.3-2.08,74.12.89,142.4,21.82,204.94,61.45,18.36,11.64,35.02,25.51,51.43,39.82,32.97,28.75,58.49,63.22,79.49,101.19,19.58,35.41,32.44,73.31,39.38,113.21,3.29,18.91,5.8,37.84,6.32,57.12,1.22,45-4.68,88.87-18.51,131.69-22.21,68.76-62.13,125.69-116.78,172.24-25.66,21.85-54.11,39.8-84.79,54.26-44.54,21-91.43,32.19-140.32,35.27-15.57.98-31.34,1.18-46.87-.13-48.91-4.12-96.05-15.62-140.39-37.17-33.24-16.16-63.8-36.59-91.2-61.32-47.19-42.6-82.05-93.87-103.51-153.8-14.69-41.03-22.12-83.54-22.48-127.2ZM554.36,766.93l-.15-.15c9.27,13.22,20.02,25,33.66,34.3,1.05-1.81,2.13-3.66,3.28-5.63-2.05-1.62-3.79-2.97-5.51-4.34-11.37-9.11-21.74-19.08-28.75-32.14-2.34-4.36-5.36-8.34-7.82-12.63-2.04-3.55-4.12-7.17-5.45-11.01-.92-2.67-2.11-4.08-4.81-4.92-8.59-2.7-10.59-5.74-10.24-15.14,2.98,2.59,5.52,5.32,8.56,7.28,3.06,1.98,6.65,3.1,9.9,4.81.77.4,1.39,1.58,1.57,2.51,1.37,6.82,5.45,12.13,9.97,16.98,6.35,6.81,12.76,9.9,22.29,5.67-10.96-11.64-17.89-25.49-23.84-40.03,12.59,10.68,21.6,26.44,41.34,28.81-7.59-9.89-14.44-18.83-21.3-27.76.31-.33.61-.66.92-.98,4.2,2.57,8.21,5.53,12.63,7.63,7.54,3.58,15.2,7.03,23.07,9.74,4.48,1.54,9.34.72,13.63-2.51-6.35-4.41-12.8-8.33-18.58-13.06-5.75-4.7-11.2-9.88-15.31-16.2,1.95.44,3.48,1.32,5.08,2.06,10.55,4.9,20.94,10.21,31.73,14.51,7.16,2.86,16.36-1.12,21.21-7.84-11.33-7.19-25.18-10.38-34.75-21.9,7.18,1.87,13.56,3.65,20,5.19,7.87,1.88,15.74,4.45,23.96,2.12,1.91-.54,3.64-1.74,5.98-2.89-13.03-5.61-25.07-10.79-37.1-15.97.13-.38.25-.77.38-1.15.66.05,1.32.08,1.98.14,12.03,1.27,24.03,2.87,36.08,3.71,9.82.68,16.01-6.05,23.02-12.58-19.33-5.73-37.82-11.2-56.53-16.75-2.39,9.89-7.97,16.83-17.75,18.64-11.57,2.14-22.87.34-33.6-4.86-3.05-1.48-6.55-2.35-9.93-2.75-12.67-1.53-22.67-7.29-29.81-17.97,3.29,1.22,6.36,2.85,9.39,4.53,8.72,4.82,17.59,9.45,27.99,7.92,4.01-.59,7.85-2.4,11.77-3.66.33.26.65.53.98.79-2.86,2.55-5.73,5.1-8.59,7.65,17.6,8.17,39.42,2.98,47.95-11.39,1.25.2,2.52.54,3.8.59,14.89.61,29.79,1.15,44.68,1.77,8.55.36,17.11.61,25.63,1.28,21.79,1.72,42.26-2.58,61.47-12.95,1.66-.89,2.96-2.45,4.88-4.08-7.74,0-14.47-.06-21.2.01-18.05.2-36.1-.12-53.76-4.12-8.01-1.81-15.64-5.31-23.44-8.04.15-.67.29-1.33.44-2,2.89,0,5.77.02,8.66,0,21.38-.15,42.77-.34,64.15-.46,15.37-.09,30.25-3.01,44.25-9.15,6.48-2.84,12.16-7.58,18.04-11.68.89-.62.91-2.51,1.33-3.81-1.35-.32-2.77-1.08-4.05-.89-7.09,1.07-14.1,2.87-21.22,3.5-21.7,1.94-43.41,4.03-65.16,4.94-13.67.57-27.44-.75-41.14-1.53-3.56-.2-5.47.22-5.86,4.26-.72,7.36-5.09,12.2-11.89,14.57-3.29,1.15-4.56,2.97-4.91,6.31-.68,6.5-3.49,12.03-9.63,14.88-11.21,5.2-22.67,3.06-34.26.3,1.22-1.24,2.73-2.47,4.01-2.26,8.02,1.27,15.67-.49,23.04-3.09,6.65-2.34,11.33-7.42,15.57-13.36-7.97-1.12-15.31-2.15-22.65-3.18.05-.48.09-.96.14-1.44,2.48-.19,4.95-.47,7.44-.57,9.64-.35,18.71-2.51,26.63-8.31,2.82-2.06,5.18-4.48,4.34-8.38-10.16-1.37-20.22-2.81-30.31-3.98-1.26-.15-2.94.87-3.98,1.83-5.32,4.88-10.06,10.51-15.82,14.79-13.52,10.05-25.04,9.26-40.48.78,3.64,0,6.43.06,9.23,0,16.34-.38,31.01-4.42,40.83-18.88,2.34-3.45,5.45-4.39,9.46-4.14,12.22.76,24.49,2.15,36.68,1.7,22.41-.83,44.83-2.23,67.14-4.44,23-2.28,44.67-9.39,64.56-21.48,9.42-5.73,17.94-12.48,24.76-21.22,1.07-1.37,1.72-3.06,2.57-4.61-.29-.26-.58-.52-.87-.79-14.12,9.31-29.6,15.62-45.99,18.81-24.94,4.86-50.07,8.78-75.19,12.62-6.26.96-12.8.1-19.21.09-1.18,0-2.36.14-3.54.12-14.12-.21-28.24-.22-42.34-.71-10.74-.37-21.45-1.92-32.17-1.91-12.85.01-23.57,4.89-30.21,16.71-1.51,2.7-3.38,5.2-5.05,7.81-9.67,15.09-22.74,26.34-39.1,33.5-4.47,1.96-9.74,3.5-14.48,3.12-13.91-1.12-24.2-9.06-32.96-19.63,1.32-.79,2.31-1.38,3.83-2.28-11.99-8.32-23.37-16.5-35.06-24.21-5.39-3.56-11.28-6.42-17.14-9.19-3.44-1.63-12.45.19-12.28,2.11.32,3.57,1.65,7.28,3.44,10.44,2.46,4.33,6.08,8,8.58,12.31,4.96,8.55,1.79,14.77-7.18,15.86v41.01c.43.05.86.11,1.28.16,1.8-4.13,3.59-8.25,5.39-12.38.36.09.72.19,1.08.28.84,8.62,1.69,17.24,2.53,25.86.37.16.75.32,1.12.47,1-1.39,2-2.78,3-4.17.37.18.75.36,1.12.54-.58,4.75-1.38,9.48-1.71,14.24-.98,14.04-1.66,28.1,6.04,40.85,6.62,10.96,11.41,22.62,14.06,35.16.73,3.45,1.76,6.84,2.87,11.06,2.16-3.14,3.7-5.39,5.69-8.27,1.23,7.7,2.48,14.58,7.4,20.03,3.27-7.5,6.39-14.66,9.52-21.83.53.13,1.05.27,1.58.4,0,1.52.1,3.04-.02,4.55-.32,4.27-.69,8.54-1.12,12.81-1.35,13.22,2.65,24.17,13.55,32.23,1.66,1.23,3.2,2.7,5.01,3.64,2.57,1.32,3.9,3.32,3.48,6.03-1.33,8.7-2.45,17.46-4.47,26.01-1.78,7.53-4.72,14.77-7.02,22.19-1.07,3.43-.11,6.07,4.25,7.33.6-1.93,1.51-3.79,1.73-5.72,1.16-10.37,2.93-20.75,9.33-29.16,3.6-4.72,5.27-9.72,6.56-15.15.68-2.87,1.25-5.77,1.83-8.66,1.56-7.73,3.09-15.45,4.74-23.69,3.55,3.24,5.33,6.3,4.86,10.54-.22,1.99-.48,4.56.52,6.01,5.03,7.32,10.64,14.2,18.46,18.82,2.63,1.56,4.67.95,5.99-1.85-15.42-14.25-21.05-23.13-22.62-36.65,13.01,12.37,24.31,25.3,39.29,34.62-.07-3.91,1.6-7.55-2.35-10.33-14.23-10.02-22.31-24.49-28.56-40.2-.43-1.08,0-2.51.04-3.78ZM220.68,717.3c-.48.02-.95.04-1.43.06-3.71-23.72-7.42-47.43-11.18-71.53-5.06,3.28-5.9,7.96-6.44,12.63-.84,7.28-3.97,12.99-9.77,17.64-10.82,8.65-9.29,11.78-4.12,21.71,32.6,62.54,79.1,112.15,138.64,149.68,1.61,1.01,3.41,1.72,5.78,2.89-1.48-5.85-3.7-9.78-8.13-12.71-18.23-12.04-32.05-27.43-36.18-49.77-2.58-13.94-2.04-27.95-.79-41.96.24-2.69.85-5.36,1.29-8.03l1.47-.77c6.05,24.37,24.8,38.07,42.11,52.75,1.15-9.73,2.29-19.41,3.43-29.08.44-.02.87-.04,1.31-.06,5.4,9.37,7.35,20.71,15.56,28.61,4.53-22.73-.82-44.17-7.11-65.57,13.93,8.62,28.01,16.59,37.15,30.16,4.84,7.19,9.02,14.48,17.68,17.8,2.05.79,3.52,3.08,5.29,4.65.8.71,1.65,1.36,2.99,2.47,1.48-6.36,3.33-12.02,4-17.82.67-5.76.15-11.67.15-17.58,14.2,7.94,24.18,19.12,25.95,36.31.77,7.49,1.48,15,2.55,22.45.82,5.71,2.09,11.38,5.81,16.29,8.37-13.07,2.8-25.9.41-38.99,5.99,4.64,11.83,9.19,16.69,14.61,7.12,7.93,9.05,17.99,9.89,28.33.47,5.72,1.41,11.41,2.14,17.11.56-.02,1.12-.05,1.68-.07,1.11-6.19,2.35-12.36,3.27-18.58.53-3.6,1.35-7.46.63-10.9-2.14-10.2-4.98-20.24-7.56-30.37-.47.16-1.19.4-1.79.6-1.39-7.93-2.45-15.69-4.14-23.32-2.73-12.35-8.14-23.62-14.21-34.69-2.77-5.04-4.69-10.86-5.58-16.54-1.08-6.92-.66-14.08-.91-21.13-.02-.56-.19-1.11-.31-1.73-1.06.27-1.99.5-3.61.91v-20.9c-4.11,4.18-7.14,7.26-10.83,11.02,0-2.47-.27-4.07.04-5.55,3.51-16.57,2.23-33.14.41-49.77-.64-5.87-3.15-9.45-8.62-11.45-7.83-2.86-15.56-5.99-23.32-9,3.5-7.4,4-7.62,19.57-8.75-2.16-2.01-4.49-3.82-7.02-5.3-7.92-4.65-15.32-3.42-22.38,3.79-.39-4.41-.77-7.33-.87-10.27-.23-6.26,3.06-10.62,9.11-12.44,8.06-2.43,16.16-2.11,23.94.66,5.5,1.96,10.64,4.4,16.28.72.54-.35,1.45-.14,2.18-.2,6.06-.46,11.34,1.83,16.21,5.01,10.38,6.77,20.62,13.75,30.92,20.64,1.25.84,2.5,1.68,3.75,2.52.42-.29.84-.59,1.26-.88-1.83-4.75-3.4-9.61-5.52-14.23-9.31-20.26,3.32-43.58,25.52-44.82,12.24-.68,24.66,1.72,36.99,2.9,20.25,1.93,40.45,5.09,60.74,5.65,18.8.52,37.76-.87,56.48-2.92,18.83-2.06,37.46-5.98,56.19-9.02,2.17-.35,4.55-.76,6.57-.19,1.84.51,3.99,1.97,4.82,3.61,1.89,3.73.47,9.08-3.1,11.37-6.8,4.36-13.86,8.31-20.83,12.41-2.87,1.69-5.76,3.36-8.64,5.03.2.42.41.83.61,1.25,11.29-1.21,22.64-2.08,33.87-3.69,32.03-4.59,63.98-9.57,92.49-26.52.88-.52,1.89-1.11,2.85-1.14,2.53-.06,6.24-.79,7.33.52,1.7,2.07,1.97,5.57,2.17,8.52.1,1.35-1.15,3.04-2.2,4.18-4.09,4.45-8,9.17-12.6,13.04-23.9,20.1-52.29,28.92-82.76,32.33-1.48.17-2.89.94-4.33,1.42.89,1.04,1.47,1.19,2.04,1.14,16.29-1.62,32.59-3.17,48.86-4.94,6.44-.7,12.8-2.42,19.23-2.64,2.47-.08,5.92,2.19,7.27,4.4,1.08,1.77.07,5.23-.83,7.64-.67,1.79-2.4,3.48-4.08,4.55-5.81,3.72-11.52,7.79-17.79,10.56-16.61,7.34-34.41,9.05-52.32,9.89-4.9.23-9.8.57-14.69.86,1.28.96,2.55,1.2,3.82,1.2,13.27.02,26.54.15,39.8-.1,3.81-.07,6.31,1.24,7.8,4.49,1.53,3.34-.27,5.94-2.88,7.51-5.66,3.4-11.35,6.91-17.42,9.42-16.89,6.98-34.5,9.82-52.82,7.99-5.42-.54-10.93-.08-16.4-.08.93,1.44,1.95,1.94,2.96,2.47,4.02,2.11,5.23,6.08,2.42,9.56-4.97,6.14-10.63,11.52-18.66,13.53-1.67.42-3.29,1.02-4.93,1.54,2.8,9.23,1.2,12.51-7.55,15.27-3.29,1.04-6.77,1.47-10.53,2.25.8.94,1.33,1.84,2.1,2.43,3.58,2.76,2.78,5.66.5,8.74-3.77,5.1-8.83,8.18-14.93,9.62-2.69.63-5.43,1.08-8.39,1.66,1.13,5.63.3,10.62-5.66,12.28-4.05,1.13-8.51,1.38-12.74,1.16-4.34-.23-8.63-1.51-14.04-2.54,3.6,4.14,6.54,7.52,9.77,11.23-9.68,4.39-18.7,1.48-28.14.03,2.65,3.49,5.3,6.98,8.02,10.56-7.16,6.97-16.55,3.86-25.78,4.97,8.16,12.28,18.19,21.37,28.92,29.82,12.41-12.92,25.09-25.14,25.67-44.64,4.8,12.82,10.51,25.07,6.28,38.27,14.72-14.2,29.6-28.56,44.87-43.3,0,3.12.2,5.87-.03,8.58-1.5,17.32-3.28,34.64-15.59,48.38-5.51,6.15-2.58,12.79-2.39,19.63,19.22-21.88,43.77-34.56,70.83-43.53-10.61,10.66-18.59,22.81-23.88,37.89,13.67-4.28,24.28-11.86,34.69-21.63-.31,7.11-.41,13.24-.88,19.35-1.11,14.49-5.93,27.05-18.95,35.18-5.51,3.44-10.84,7.16-16.46,10.4-3.47,2-4.44,4.86-4.81,8.7,129.86-65.89,207.16-198.35,206.59-334.03-2.15-.16-4.33-.47-6.52-.47-78.27-.16-156.54-.27-234.81-.42-26.88-.05-53.75-.19-80.63-.29-94.82-.36-189.65-.71-284.47-1.13-2.69-.01-4.27.87-5.78,3.06-5.62,8.14-11.47,16.12-17.17,24.21-1.19,1.7-2.08,3.61-3.11,5.43.26.29.51.58.77.87,2.04-.66,4.22-1.05,6.07-2.05,3.23-1.76,6.4-3.71,9.34-5.91,4.01-2.99,8.62-3.63,13.07-2.59,7.41,1.74,13.67.05,19.51-4.4,2.76-2.1,5.59-4.11,8.74-6.42-1.16,11.04-5.83,18.75-16.26,22.05-3.79,1.2-7.65,2.19-11.45,3.38-1.21.38-2.62.83-3.4,1.72-3.77,4.32-7.35,8.79-11.37,13.66,20.92,3.59,41.55,7.13,62.18,10.67.04.31.08.61.12.92-23.09,3.27-46.18,6.53-70.37,9.95,1.56,1.77,2.4,3.4,3.72,4.08,2.32,1.2,4.88,2.21,7.45,2.6,8.77,1.36,15.6,5.43,21.02,12.61,2.04,2.71,5.63,4.63,8.91,5.92,5.02,1.98,10.38,3.11,16.24,4.78-13.41,5.86-25.59,6.92-37.25-2.61-2.23-1.82-5.86-2.6-8.86-2.64-4.47-.05-8.95.99-14.05,1.64,13.23,18.04,26.15,35.66,39.06,53.27-.21.19-.42.38-.64.57-18.95-14.22-37.91-28.43-56.86-42.65-.36.34-.73.68-1.09,1.03,1.27,2.76,2.23,5.73,3.88,8.25,4.83,7.38,6.88,15.13,4.28,23.8-.17.56-.26,1.15-.37,1.73-.65,3.59-.32,6.82,1.81,10.1,3.33,5.15,6.09,10.68,9.1,16.04-11.43-5.95-22.77-11.81-24.45-26.56-.33-2.87-.76-6.47-2.58-8.28-4.06-4.05-9.03-7.18-13.9-10.89-2.94,21.32-5.82,42.28-8.71,63.25ZM733.89,332.32c.19,5.28-.23,10.11-3.5,14.41-1.79,2.36-3.8,5.01-.5,9.01,2-4.2,3.73-7.83,5.41-11.36,5.7,3.5,4.82,9.56,5.05,15.35,2.84-1.69,5-2.97,7.57-4.5.53,8.21-.62,14.74-8.85,17.82,1.7,1.55,2.97,2.71,4.18,3.82-1.64,3.44-3.84,5.54-7.67,5.07-3.24-.4-6.47-.84-10.49-1.36,1.5,2.75,2.71,4.96,3.7,6.76-8.22,4.95-12.93-.2-17.92-7.4-.36,4.45-.6,7.44-.87,10.77-5.8-2.63-9.33-6.61-11.05-12.57-2.16-7.46-2.82-7.74-11.55-8.28.83,3.42,1.28,6.77,2.48,9.83,1.6,4.08,2.43,7.81-.41,11.72-.86,1.18-.98,2.9-1.43,4.37.39.23.77.47,1.16.7,2.45-3.08,4.89-6.16,6.94-8.74,2.91,2.01,5.3,4.77,8.18,5.43,6.54,1.5,8.11,2.46,9.5,9.07.16.76.42,1.49.98,3.46,2.53-4.49,4.49-7.96,6.63-11.74,3.24,8.54,3.23,15.99-4.49,22.08.31.27.62.54.93.81,2.77-.39,5.54-.77,8.43-1.18.39,9.29-5.86,11.34-14.12,12.2,3.13,1.59,5.12,2.6,7.14,3.63-5.95,5.54-12.86,3.91-19.07,3.25-2.03,3.5,5.23,5.31.63,8.39-5.36,3.59-10.49,2.73-15.68-3.17,2.91,10.81-.36,18-9.12,24.13,5.1.27,8.51.46,12.28.66-4.87,6.34-7.87,7.45-14.85,6.33-2.04-.33-4.18-.05-6.39-.05.91,6.95,7.33,3.34,10.05,6.25-4.86,4.84-10.43,5.81-16.75,3.96-1.24-.36-2.69.04-4.05.08.22,1.53.05,3.28.75,4.55,1.29,2.36,3.08,4.45,5.06,7.19-9.31-.39-16.55-2.98-20.78-11.46-.47.25-.94.5-1.41.76v12.57c-10.35-2.26-13.83-3.49-12.03-13.29.22-1.2-.49-2.58-.78-3.87-.39-.07-.78-.14-1.17-.21-3.02,4.42-6.05,8.83-9.85,14.39-.68-4.83-1.57-8.41-1.58-12.01,0-3.57.87-7.14,1.38-10.82-5.52-1.13-4.13,6.14-7.46,6.42-2.79-1.87-5.17-4.82-7.38-4.7-7.31.41-11.3-3.16-14.02-9.21-.09-.2-.41-.3-.82-.59-.78.69-1.58,1.41-2.58,2.3,1.43,1.57,2.68,2.81,3.78,4.18,1.47,1.83,5.8,2.69,3.25,5.94-1.25,1.6-4.46,2.04-6.85,2.25-2.13.19-4.36-.58-6.52-1.03-2.21-.46-4.4-1.04-6.6-1.57-.14.54-.28,1.08-.43,1.62,5.1,1.4,10.2,2.79,15.3,4.19-1.44,1.45-2.91,1.78-4.08,2.57-1.4.94-2.53,2.27-3.77,3.43,1.62,1.16,3.12,3.03,4.88,3.32,3.23.54,6.62.15,10.03.15-2.79,8.2-5.49,9.87-13.39,9.06-1.49-.15-3.09.84-5.87,1.67,3.73,4.39,6.68,7.87,9.57,11.28-9.12,3.74-15.81-.03-21.11-8.43-2.05,8.99,5.58,9.51,9.63,13.35-8.33,1.72-15.94,4.8-22.69-3.89-.41,4.24-.7,7.22-1.08,11.2,5.64,0,10.62-.01,15.6,0,61.13.17,122.27.38,183.4.5,43.42.09,86.84.07,130.26.1,6.35,0,12.7-.06,19.05.02,2.89.04,4.04-1.24,3.78-4.05-.77-8.06-1.14-16.18-2.33-24.17-2.94-19.68-5.41-39.48-9.62-58.9-6.92-31.93-19.59-61.87-35.31-90.4-19.08-34.61-42.7-65.77-71.89-92.67-20.06-18.48-41.23-35.36-64.59-49.46-1.05-.64-2.19-1.15-4.39-2.29,3.16,5.71,1.22,10.02-.49,14.42-.36.93.14,2.19.25,3.3,1.05-.42,2.42-.57,3.08-1.33,1.95-2.26,3.63-4.76,5.85-7.75,2.69,8.11,2.37,14.79-2.35,21.03-.76,1-.67,2.64-.97,3.99l1.27.32c1.87-2.03,3.75-4.05,5.45-5.9,8.45,7.96.84,14.44-1.48,21.68,2.42-1.72,4.84-3.43,7.87-5.58.19,2.45.51,4.18.43,5.89-.24,5.45-1.1,10.91-.82,16.33.23,4.54-1.17,7.52-4.83,10-1.22.83-1.73,2.7-2.57,4.1.37.26.75.52,1.12.78,2.49-1.34,4.98-2.67,7.46-4.01,1.86,8.72-2.03,14.89-8.06,20.26.36.27.72.54,1.08.81,2.64-.97,5.28-1.94,7.63-2.8,3.82,9.87-4.4,12.99-9.93,17.56,4.66,5.62,6.74-2.27,10.23-1.15,1.37,6.44.32,11.72-6.64,14.33-.93.35-2.03.97-2.47,1.78-.66,1.23-1.53,3.24-1,3.99.77,1.09,2.84,2.07,4.13,1.83,2.67-.49,5.19-1.81,7.98-2.87ZM326.61,201.82c-.68.41-1.42.84-2.15,1.3-17.91,11.41-34.98,23.94-51.03,37.87-36.96,32.08-66.16,70.21-88.02,113.9-25.15,50.26-38.92,103.39-39,159.82,0,6.47-.22,6.57,6.51,6.61,17.87.13,35.75.17,53.62.23,87.73.26,175.46.52,263.19.77,8.07.02,16.13,0,24.87,0-.58-3.78-1.01-6.54-1.51-9.8-8.93,5.39-15.66,5.73-21.7,2.04,2.89-2.39,6.01-4.77,8.82-7.47.55-.53-.08-2.29-.17-3.48-1.04.44-2.52.58-3.04,1.37-5.07,7.64-8.65,7.5-18.22,5.09,2.27-2.5,4.7-4.87,6.72-7.54.87-1.15.88-2.94,1.29-4.44-1.49-.28-2.99-.87-4.46-.8-8.06.38-10.75-1.61-12.56-9.88,5.04-.52,10.93,3.28,15.45-3.19-2.85-1.84-5.56-3.59-8.4-5.42,4.58-1.42,8.91-2.77,13.25-4.11-.13-.47-.26-.93-.39-1.4-3.69.59-7.47.87-11.06,1.83-4.46,1.2-7.5-.33-10.2-3.69,8.15-5.94,8.27-6.11,7.12-10.36-1.35,1.44-2.47,3-3.94,4.1-2.44,1.83-5.14,4.79-7.66,4.72-4.88-.14-7.98,1.01-9.33,6.27-2.89-3.11-5.4-5.81-7.92-8.52-.38.16-.76.32-1.15.49.4,3.51,1.21,7.04,1.09,10.53-.13,3.71-1.13,7.39-1.75,11.08-.4.06-.79.13-1.19.19-.97-1.56-1.97-3.1-2.9-4.68-.98-1.65-1.75-3.45-2.89-4.97-.91-1.22-2.24-2.13-4.21-3.93.9,14.07-1.3,16.87-12.29,17.53v-12.02c-.28-.24-.56-.49-.83-.73-4.64,7.19-10.47,12.05-19.61,10.84,1.41-2.48,2.94-4.83,4.11-7.36.55-1.18.4-2.67.57-4.02-1.31-.1-2.71-.57-3.9-.24-6.03,1.65-11.45,1.19-16.11-3.77,3.35-1.73,8.43-.92,8.78-6.77-4.01.31-7.67.86-11.32.8-4.23-.06-6-3.45-8.07-6.64,3.4-.45,6.4-.85,9.04-1.2-2.92-4.19-6.14-7.3-7.44-11.08-1.24-3.6-.48-7.89-.59-11.49-2.39,1.1-5.54,3.64-8.74,3.71-3.19.07-6.44-2.32-9.66-3.64-.17-.74-.34-1.48-.51-2.22,1.84-1.08,3.69-2.16,5.53-3.23l-.66-1.06c-7.61,1.27-15.01,1.38-21.59-3.77,2.87-1.11,5.59-2.16,8.31-3.21-10.47-1.65-13.4-4.51-11.83-11.88h6.94c-6.14-9.83-6.55-13.2-2.64-21.8,1.64,3.42,3.21,6.71,5.07,10.59q5.57-11.96,13.17-11.01c-.49,3.81-3.03,7.87,1.67,11.2.58-1.46.92-3.01.52-4.34-2.02-6.67-1.59-8.31,3.98-13.06,2.64,2.53,2.71,8,8.66,7.71-.91-1.67-1.37-2.95-2.19-3.94-3.01-3.63-3.16-7.29-.88-11.39.98-1.76,1.43-3.88,1.78-5.89.47-2.68-.33-4.1-3.6-3.74-4.59.51-6.26,3.53-7.06,7.33-1.26,5.98-4.15,10.59-10.46,13.4-.65-3.59-1.26-6.98-1.96-10.89-6.33,9.52-6.77,9.72-16.44,7.52,1.11-2.34,2.19-4.64,3.44-7.28-7,.48-14.59,5.31-18.98-4.2,1.33-.93,2.57-1.81,4.11-2.89-7.28-4.3-9.2-10.58-8.55-18.73,2.77,1.95,4.99,3.51,6.76,4.76,1.12-5.26,2.23-10.45,3.34-15.64.5.02.99.03,1.49.05,1.24,2.46,2.25,5.06,3.79,7.32.92,1.35,2.64,2.16,4.01,3.21-.08-1.67.15-3.42-.32-4.97-.5-1.66-1.9-3.03-2.48-4.67-1.38-3.93-2.5-7.96-3.91-12.52,5.4.37,8.92,5.1,14.61,1.37-2.07-2.44-3.57-5.24-5.91-6.76-5.62-3.65-7.37-6.89-6.12-13.98,3.5.83,5.98,5.73,11.04,2.81-1.45-1.55-2.39-3.43-3.81-3.93-7.31-2.58-7.54-8.57-7.74-15.17,3.21,1.31,6.17,2.51,9.13,3.72l1.02-.95c-6.04-5.52-9.95-11.84-8.51-20.65,2.84,1.39,5.55,2.72,8.27,4.05.32-.27.63-.54.95-.81-.98-1.29-1.93-2.61-2.95-3.86-1.8-2.21-5.1-4.3-5.23-6.59-.46-8.28.14-16.63.37-24.95,0-.15.4-.3.79-.56.94.87,1.9,1.76,2.87,2.64,1.05.95,2.13,1.87,3.19,2.81.33-.22.66-.44.98-.66-1.09-2.12-2.03-4.35-3.3-6.35-4.08-6.41-4.11-8.02.21-14.44,2.26,1.95,4.52,3.92,6.79,5.88.51-.19,1.02-.37,1.53-.56-4.14-7.53-8.83-15.02-2.99-23.78,2.23,3.17,4.29,6.09,6.35,9.02.54-.24,1.07-.48,1.61-.71-.87-5.43-1.74-10.86-2.69-16.76ZM575.02,435.55c-1.22,2.25-1.88,3.5-2.57,4.74-7.36,13.15-26.97,14.85-35.01,2.89-4.17-6.2-6.53-13.16-7.32-20.67-.31-2.95.38-4.72,3.25-5.79,6.15-2.28,8.01-7.38,8.35-13.36.35-6.11-3.12-9.53-8.27-11.78-.78-.34-1.51-.82-3.19-1.74,3.61-8.08,7.15-16.01,10.68-23.93.78-.02,1.57-.05,2.35-.07,2.52,4.85,5.03,9.71,7.48,14.43.94-1.58,1.99-3.34,3.66-6.14,1.55,7.22,2.83,13.12,4.1,19.02.47-.03.94-.06,1.41-.08.57-4.56,1.14-9.11,1.76-14.13,2.19,1.67,3.92,3.28,5.92,4.42,1.96,1.12,4.2,1.76,6.32,2.61-13.41-16.9-12.63-23.82-13.25-35.52,4.66-1.36,4.39-1.23,6.34,2.97,2.21,4.76,4.98,9.26,7.79,14.39q4.24-10.23,6.22-10.3c3.02,8.04,5.98,15.93,8.95,23.82.44-.11.88-.22,1.32-.33,1.5-11.67,4.86-22.68,10.76-32.89,1.71-2.96,3.58-4.15,6.6-2.47-.91,14.38-1.82,28.72-2.71,42.75,6.29,1.37,11.4,2.48,16.66,3.62-4.36,2.73-8.85,4.25-11.18,7.37-2.36,3.17-5.64,7.14-3.52,12.05,12.02,3.56,21.62,12.21,23.26,20.54-5.2-.77-10.52-1.69-15.88-2.31-2.88-.33-4.28,1.22-3.08,4.06,3.08,7.3,5.67,14.92,9.68,21.69,3.92,6.62,9.7,11.92,17.39,14.43,6.53,2.14,12.6.19,16.77-5.46-11.93-3.88-18.04-12.97-21.04-24.38-7.04-26.77-6.41-53.14,4.54-78.94,1.45-3.41,3.23-4.57,6.78-2.86-2.3,16.49.34,32.43,5.53,47.98,3.69,11.08,10.44,19.56,22.54,22.2,8.85,1.93,17.15.92,24.88-5.74-1.79-.78-3.01-1.18-4.1-1.81-4.37-2.55-9.3-4.54-12.9-7.92-6.43-6.03-9.52-14.22-10.99-22.77-4.73-27.46-.86-54.1,8.45-80.09.61-1.7,3.04-2.76,5.4-4.78.46,6.17.74,10.86,1.18,15.54,1.28,13.34,3.62,26.49,11.36,37.76,5.27,7.68,12.46,12.75,23.55,11.46-12.64-11.53-12.91-26.13-12.79-40.91.12-15.52.08-31.04-.02-46.56-.02-2.79-.63-5.58-1.11-9.47-2.25,2.66-3.82,4.23-5.06,6.02-7.34,10.58-17.02,18.74-27.11,26.47-26.08,19.97-55.79,28.64-88.4,28.43-7.2-.05-14.4.79-21.6,1.06-4.4.17-8.82.03-13.92.03,8.12-9.27,8.65-20.12,8.06-31.17,4.81,3.23,8.79,6.52,13.29,8.79,7.77,3.91,16.34,3.42,24.68,2.7,9.18-.8,18.62-1.19,27.38-3.73,16.31-4.72,32.22-11.08,45.56-21.99,10.71-8.76,20.68-18.41,31.03-27.6,4.01-3.57,5.51-7.68,4.02-13-1.5-5.39-2.13-11.04-3.92-16.32-8.84-26.1-31.09-40.61-56.67-37.25-21.01,2.76-34.17,20.26-30.19,40.14,2.35,11.74,12.48,18.17,24.15,15.34,1.77-.43,3.55-.83,6.77-1.57-2.3,11.36-3.43,21.87-6.8,31.61-1.78,5.13-6.82,9.91-11.59,12.99-4.88,3.14-12.08,1.89-16.5,6.98-7.11-1.42-13.88.98-20.8,1.78-1.43.16-2.98-1.02-4.51-1.47-1.37-.41-2.95-1.24-4.16-.89-7.28,2.09-13.72-.44-20.01-3.45-1.52-.73-2.85-2.59-3.5-4.23-3.2-8.05-6.11-16.21-9.18-24.31-.7-1.85-1.64-3.61-2.86-6.29,3.8.93,6.63,1.62,9.75,2.38-3.96-6.46-7.65-12.48-11.63-18.97,3.77.68,6.36,1.15,9.91,1.79-5.69-8.28-10.63-15.61-15.73-22.82-5.74-8.12-12.13-15.56-20.68-21.02-3.33-2.13-6.27-2.74-10.02-1.12.55,1.95,1.05,3.75,1.52,5.43,10.71.13,17.37,4.54,18.6,11.84-8.45,3.71-11.77-3.01-16.38-8.89,2.7,7.38,5.08,13.78,7.37,20.21,1.59,4.46.54,8.1-2.9,10.61-3.73,2.72-7.16,1.87-10.5-.79-1.17-.93-2.46-1.73-3.08-2.16-2.41,5.94-4.65,11.43-6.91,17,1.31-.26,2.81-.57,4.64-.94-.34,8.38-6.36,13.43-10.58,19.67,2.3.2,4,.35,5.6.48.11.43.22.62.17.7-4.15,6.75-8.28,13.5-12.5,20.2-.32.51-1.18.75-1.84.98-6.79,2.4-13.5,5.36-20.97,2.77-.48-.17-1.28-.06-1.66.25-5.31,4.33-10.56,2.73-15.93.09-.98-.48-2.45.16-3.68.06-3.7-.3-7.46-.4-11.06-1.2-2.87-.63-5.51-2.23-8.29-3.3-2.56-.98-6.22-1.04-7.54-2.86-2.72-3.75-4.39-8.21-9.36-9.8-.38-.12-.65-.97-.76-1.52-1.74-8.82-3.55-17.62-5.09-26.47-.31-1.78.43-3.74.72-5.83,12.62,4.89,24.17.73,27.61-9.85,2.94-9.04,2.6-18.31-2.61-26.49-8.74-13.73-21.86-19.74-37.81-18.24-22.25,2.1-40.07,17.32-45.63,39.77-3,12.09-4.67,24.73-5.14,37.19-.85,22.29-.14,44.63-.47,66.94-.17,11.33-2.82,21.98-12.14,29.74-.11.09.05.52.08.78,7.14,2.04,17.12-1.6,21.88-8.98,9.42-14.62,12.9-30.9,11.76-48.16-.17-2.54-.11-4.44,2.57-5.2,2.83-.81,3.39,1.37,4.17,3.34,9.98,25.3,13.07,51.42,8.87,78.28-2.53,16.17-9.66,29.02-27.39,33.34.71.78,1.14,1.36,1.67,1.82,11.07,9.65,32.47,5.89,39.98-7.28,9.03-15.82,12.01-33.15,11.77-51.16-.03-2.46-.35-4.92-.53-7.38,1.68-.47,2.94-.83,4.75-1.34,2.67,7.58,5.89,14.92,7.83,22.58,3.71,14.62,3.85,29.52,1.85,44.46-.27,2.03-.04,4.14-.04,6.21,1.6-.78,1.98-1.69,2.53-2.51,4.4-6.61,9.75-12.12,17.59-14.56,3.44-1.07,4.73-4.52,3.09-7.76-2.92-5.81-5.87-11.44-13.59-11.58-.08,0-.14-.5-.41-1.48,5.44-1.13,10.83-2.24,16.53-3.42-1.02-13.95-2.06-28.13-3.07-42.05,3.26-1.66,5.29-1.09,6.42,1.93,3.13,8.39,6.34,16.75,9.35,25.18.85,2.37,1.11,4.94,1.87,8.48,1.61-3.04,2.92-5.01,3.74-7.17,1.72-4.55,3.06-9.25,4.84-13.77.53-1.34,2.04-2.29,3.1-3.43.75,1.19,1.79,2.29,2.19,3.59.62,1.98.81,4.1,1.18,6.17.44.11.88.23,1.31.34,2.97-5.83,5.95-11.66,9.04-17.71,3.15-.28,4.29,1.33,4.15,4.96-.36,8.98-2.64,17.17-8.33,24.28-1.49,1.87-2.74,3.93-4.1,5.91.28.31.55.63.83.94,3.79-2.04,7.57-4.08,11.15-6.01.66,4.82,1.33,9.62,1.99,14.43.42-.05.83-.11,1.25-.16,1.35-6.21,2.69-12.42,4.22-19.45,1.89,2.32,3.04,3.72,4.36,5.33,2.69-9.19,3.87-10.95,8.22-12.52,5.71,7.06,10.03,16.55,10.46,23.11-.97.49-2.02.99-3.06,1.54-8.64,4.58-10.37,12.42-4.28,20.15,1.53,1.94,3.76,3.29,5.46,5.11.99,1.06,2.13,2.46,2.23,3.79.61,7.94-1.47,15.17-6.3,21.6-11.11,14.8-29.12,8.85-35.27-3.52-.6-1.2-1.17-2.41-1.75-3.61-.5.08-1,.15-1.5.23-.44,4.49-1.41,9.01-1.22,13.47.49,11.63,12.01,18.73,22.7,14.32,7.07-2.92,7.49-2.77,10.69,3.76.21.44.5.84.8,1.34,5.66-5.52,6.3-2.98,9.93,1.26,2.4-1.12,4.67-3.15,6.62-2.88,3.63.51,5.82,3.2,5.08,7.33-1.3,7.25-2.77,14.47-3.84,21.75-.44,2.99-.51,6.21.16,9.11.37,1.62,2.65,4.02,3.99,3.96,2.82-.11,6.11-1.2,5.82-5.22-.32-4.39-.75-8.79-1.45-13.13-.82-5.08-2.19-10.08-2.92-15.17-.53-3.69.16-7.7,4.3-8.61,2.07-.45,4.7,1.61,7.12,2.55,1.19-.99,2.8-3.27,4.8-3.69,1.82-.38,4.05,1.28,6.11,2.04,1.4-5.23,3.82-6.58,9.07-4.95,1.54.48,2.94,1.61,4.49,1.81,2.67.34,5.77,1.06,8.04.09,12.67-5.43,13.11-12.93,9.56-29.24ZM584.12,251.61c-3.73,3.36-7.12,6.42-10.58,9.55,6.23,1.53,7.02,6.47,6.67,12.04-.06,1.03-.1,2.07-.06,3.1.16,3.93,1.66,4.79,5.17,3.01,4.39-2.22,8.59-.65,10.47,3.95.59,1.45,1.07,2.96,1.86,5.16,3.99-4.89-2.18-6.52-1.78-10.51,3.75.41,7.66.84,9.73,1.06,4.63-2.41,8-4.16,11.63-6.05-4.89-4.74-6.68-10.2-4.12-16.89.41-1.06-1.22-2.9-1.9-4.37l-1.38.17c-.81,1.98-1.7,3.94-2.43,5.96-1.21,3.39-2.43,3.66-4.81.97-3.75-4.23-3.92-9.48-.42-14.05,1.05-1.37,2.2-2.67,3.42-4.15-2.12-2.7-4.11-5.22-6.4-8.14-2.26,3.16-4.2,5.87-6.2,8.67-4.66-8.65-2.06-16.04,6.21-19.36,1.3-.52,2.46-3.12,2.38-4.7-.05-.93-2.59-2.25-4.14-2.44-1.76-.22-3.65.61-5.56,1-1.15-12.04,8.07-11.12,15.6-12.55-.16-1.69.01-4.19-.46-4.32-3.65-1-7.43-1.53-11.06-2.19,6.23-7.04,10.05-8.15,20.25-6.05,1.27.26,3.32.17,3.92-.61.63-.82.39-2.91-.26-3.97-1.09-1.8-2.8-3.23-4.21-4.77,7.49-10.97,14.38-1.93,21.43,1.1,1.8-5.7-3.34-7.87-5.45-11.7,2.34-.67,4.45-1.26,6.55-1.86,0-.5.02-1.01.03-1.51-38.18-12.91-77.47-18.98-117.91-18.97-40.6,0-80.09,6.07-119.49,19.46,3.35.96,5.68,1.63,8.74,2.51-2.36,2.04-4.43,3.31-5.76,5.12-1.15,1.57-1.45,3.75-2.12,5.66l1.22.7c6.52-3.12,12.83-11.21,19.97-1.11-.78.83-1.93,1.55-2.3,2.56-.77,2.13-1.13,4.41-1.66,6.63,2.04.19,4.27,1,6.08.45,7.35-2.24,12.82.46,17.72,5.88-3.86,1.69-11.24-2.6-10.51,6.69,4.45,1.02,8.93,2.04,13.57,3.11-.2-2.64-.39-5.03-.62-8.1,3.56,1.61,6.34,2.94,9.18,4.1.67.27,2.15.19,2.24-.07.28-.83.42-2.06-.01-2.7-.71-1.06-1.89-1.83-2.93-2.64-3.5-2.74-3.49-6.57-4.05-10.86,3.33,1.21,5.89,2.15,9.18,3.34-1.03-4.9-1.91-9.03-3.08-14.6,4.65,1.6,8.5,2.93,12.02,4.14,1.48-3.95,3.14-8.38,4.81-12.82.33.08.67.15,1,.23,1.49,4.24,2.97,8.48,4.46,12.72.35-.1.71-.19,1.06-.29.55-3,1.09-6,1.91-10.49,3.64,4.08,6.49,7.26,9.21,10.31,1.08-2.48,2.35-5.39,3.45-7.91,3.55,5.87,6.85,11.33,10.16,16.79.34-.17.67-.33,1.01-.5-.58-2.8-1.16-5.6-1.75-8.43,8.78-1.02,12.62,4.21,14.73,11.81,4.44-4.87-1.67-7.3-.99-12.03,3.86,1.46,8.38,1.93,10.79,4.44,2.53,2.64,3.04,7.22,4.44,10.96.29.01.58.03.88.04v-10.57c13.33,1.4,8.97,11.29,8.96,19.06.47-.07.93-.14,1.4-.21.31-3.4.62-6.81.96-10.56,6.07,3.38,10.07,7.08,7.62,14.12-.14.4-.27.98-.09,1.3.81,1.41,1.46,3.26,2.71,3.91.67.35,2.81-1.15,3.62-2.29,1.2-1.68,1.81-3.78,2.71-5.79,8.79,6.93,5.17,13.57-.45,20.13,7.98,1.65,6.1-6.01,10.27-8.87.85,3.72,1.65,6.93,2.31,10.18.37,1.84.13,3.9.85,5.56,2.48,5.75,3.26,11.06-2.36,15.53-.41.33-.55,1-1.43,2.72,4.56,1.32,8.75,2.54,14.21,4.12ZM515.25,586.77c1.64,0,2.81-.07,3.97.01,12.5.92,18.04-2.43,22.5-14.1.95-2.48,2.26-2.87,4.6-2.79,9.88.34,19.78.88,29.65.6,7.77-.22,15.9.54,22.74-4.87,1.61-1.27,4.12-1.52,6.26-2,11.43-2.55,22.91-1.31,34.4-.48,11.33.82,22.77,2.73,33.98,1.84,20.24-1.6,37.65-11.24,53.85-22.99,1.37-.99,1.99-3.01,3.06-4.72-19.79,2.79-38.58,5.65-57.44,8.04-31.46,4-62.99,4.6-94.55,1.08-20.36-2.27-40.69-4.86-61.09-6.62-4.52-.39-10.13.94-13.79,3.53-9.4,6.65-16,22.47-8.53,36.06,2.34,4.26,3.86,9.4,4.18,14.24.31,4.66,1.8,7.51,5.91,9.15,4.63,1.85,9.25,3.74,13.97,5.35,2.79.96,5.75,1.42,8.63,2.11,0,.3,0,.61,0,.91-5.74.73-11.49,1.45-17.39,2.2,5.41,7.08,14.69,11.09,22.73,9.19,21.99-5.21,35.78-20.4,47.28-39.76-10.98-2.01-21.36-3.92-30.62-5.62-4.31,5.2-7.48,10.35-11.87,14.03-7.74,6.48-16.5,4.57-22.43-4.4ZM182.46,564.88c-12.89,18.14-9.28,43.57,8.32,59.34,16.76,15.02,41.64,15.12,58.06.1,16.69-15.26,19.36-39.48,8.72-57.07-4.54.89-9.01,1.76-13.48,2.64-4.56.91-9.13,1.83-13.65,2.73-1.33-3.52,0-5.23,3.27-5.81,6.89-1.22,13.77-2.47,20.67-3.7-5.84-12.47-25.19-20.1-43.98-17.36-10.44,1.52-24.58,11.27-25.54,17.77,3.21.39,6.41.92,9.63,1.14,5.39.37,10.95-.15,16.17.97,7.07,1.52,8.31,7.03,3.04,13.06.18-7.84-5.42-7.96-10.58-8.54-7.15-.8-14.46-.88-20.65-5.29ZM456.63,212.9c-2.72-.73-5.52-1.48-8.5-2.27-.15,1.75-.26,3.03-.39,4.54-1.26-.34-2.22-.61-3.18-.85-3.32-.86-6.02.06-7.09,3.4-1.11,3.48,2.32,3.56,4.19,4.51,6.94,3.56,8.93,9.15,5.84,17.68-2.39-2.51-4.67-4.92-6.92-7.28-5.84,4-6.64,6.5-3.64,10.69,4.83,6.74,4.3,11.67-2.14,17.94-.88-2.29-1.81-4.43-2.54-6.64-1.18-3.61-3.06-3.34-5.85-.88,4.09,7.49,1.35,13.85-5.2,19.54,8.59.79,9.07,1.15,10.34,6.72-1.58.91-3.11,1.8-5.24,3.02,1.73,1.04,2.77,1.67,3.77,2.27,6.64-9.3,7.05-9.48,14.83-6.59q-4,6.73-2.54,8.78c.23-.42.49-.77.62-1.17,2.58-8.19,6.15-9.9,12.94-7.19.77.31,2.27-.27,2.97-.93,2.72-2.56,5.44-2.29,8.28-.7.71,3.05-2.84,6.58,2.41,9.31-1.92-7,1.49-11.77,5.81-16.21-.44-.42-.88-.85-1.33-1.27-3.38,1.63-6.77,3.26-10.32,4.97-1.2-9.18,2.94-14.59,12.08-16.74-4.54-3.97-10.1-6.13-10.88-12.73,1.97.17,3.74.63,5.41.4,3.53-.49,7.09-1.12,10.47-2.2.9-.29,1.21-2.43,1.79-3.71-1.3-.57-2.62-1.68-3.9-1.62-3.81.17-7.59,1-11.4,1.2-4.3.22-9.08-3.91-9.28-7.8,3.43-.38,7.58,2.61,11.09-3.07-4.55-.93-8.42-2.33-12.3-2.37-6-.06-9.37-3.76-13.07-7.45,5.07.33,10.48,2.26,12.83-5.28ZM427.4,195.58c-4.28-.66-9.55.03-11.84-2.26-2.24-2.23-1.43-7.51-1.86-10.73-4.67,1.32-9.72,2.75-14.97,4.23-1.09-3.66-1.81-6.08-2.61-8.77-7.2,9.46-15.08,9.78-19.17.1-3.53,10.5-10.67,9.95-19.01,6.37-1.79,7.8-5.28,13.57-14.41,11.95,1.51,9.78.13,11.61-9.19,13.68,0,3.35,1.04,7.12-.3,9.62-1.29,2.44-5.01,3.59-7,4.88.5,3.14,2.2,6.87,1.21,9.64-.99,2.77-4.66,4.58-7.27,6.91,5.23,8.62,5.01,12.21-4.23,14.67,2.07,2.6,4.58,4.9,6.02,7.74,2.18,4.3-1.75,5.96-4.68,7.74,8.81,8.4,8.55,10.36-1.79,16.01,2.49,3.04,5.95,5.72,7.24,9.21,1.71,4.64-2.4,6.67-6.09,7.68,2.28,3.02,5.12,5.5,6.26,8.61,1.47,3.99-1.47,6.67-5.29,8.23,3.2,3.72,7.45,6.41,6.37,11.89-1.16,5.9-5.7,6.29-11.26,5.99,1.79,2.97,3.17,5.18,4.47,7.45,2.62,4.59,1.82,8.57-2.73,10.64-2.22,1.01-5.03.71-7.58,1.01.25.19.5.37.75.56-2,2.39-4.01,4.79-5.94,7.1,7.83,2.69,15.81.34,19.39-7.22,2.72-5.74,4.99-12.24,5.25-18.5.88-21.36.74-42.75,1.09-64.13.06-3.66.56-7.31.91-10.96.86-9.08,1.17-18.26,2.73-27.22,6.01-34.63,36.55-52.82,67.13-46.58,17.88,3.65,29.95,15.95,31.79,32.37.38,3.4.37,6.85.54,10.38,2.81-2.48,5.24-4.62,7.71-6.8-9.04-5.49-9.38-10.07-1.55-17.86-3.18-1.3-7.6-1.76-9.26-4.15-1.7-2.44-.7-6.77-.84-9.47ZM733.55,358.56c-.13.01-1.12.11-2.1.21-3.3.34-6.62.6-8.72-2.73-2.19-3.48-.51-6.47,1.36-9.43,1.23-1.94,2.34-3.96,4.19-7.1-6.53,1.6-10.88-.3-12.21-5.6-1.29-5.16,2.71-8.36,6.7-11.19-2.96-2.55-7.3-4.29-5.32-8.82,1.41-3.22,3.98-5.92,5.98-8.78-7.98-3.49-8.4-6.58-1.38-13.24,1.03-.98,1.84-2.19,2.18-2.59-2.79-2.84-7-5.2-7.16-7.8-.18-3.05,3.18-6.3,5.07-9.58q-6.14-5.37,1.89-14.99-10.72-4.61-4.22-14.99c-2.93-2.3-7.22-4.04-8.14-6.87-.92-2.84,1.52-6.77,2.42-10.02-6.96,0-10.66-2.53-7.9-13.15-3.07-1.65-7.04-2.53-8.56-4.94-1.64-2.62-1-6.68-1.36-10.12-9.2,1.08-10.37.19-14.72-11.41-10.06,4.2-11.64,3.4-18.95-4.75-2.67,2.58-4.96,6.77-9.42,4.97-3.58-1.44-6.64-4.15-9.94-6.3-2.21,8.92-6.08,10.23-13.39,4.64-1.5-1.15-3.16-2.09-5.02-3.31.37,3.32.8,6.19,1,9.07.27,4.06-1.83,5.89-5.81,5.82-2.59-.05-5.18,0-7.17,0-.43,3.76.27,8.06-1.54,10.47-1.66,2.22-6.02,2.42-8.18,3.16,1.42,3.23,4.24,6.67,3.95,9.82-.29,3.16-3.68,6.04-5.77,9.13,1.88,1.46,4.22,3.28,6.98,5.42,0-1.21.02-1.89,0-2.58-.68-18.37,9.6-32.96,27.09-38.49,31.91-10.1,64.47,9.96,72.11,42.22,6.76,28.54,6.76,57.64,5.94,86.81-.29,10.24.58,20.69,2.41,30.78,2.06,11.33,13.05,17.72,22.57,14.97-1.49-2.66-3.03-5.42-4.86-8.7ZM702.91,788.6c-.34-.31-.68-.63-1.02-.94-2.47,1.26-5.16,2.21-7.37,3.82-10.22,7.42-20.71,14.54-30.32,22.7-8.48,7.2-14.93,15.94-17.16,27.62-1.87,9.79-6.93,18.48-13.88,25.82-1.46,1.54-3.08,2.92-4.62,4.37.23.43.47.87.7,1.3,4.18-1.79,8.97-2.81,12.42-5.52,11.33-8.93,23.15-17.56,32.96-28.01,13.58-14.48,18.97-34.01,28.3-51.15ZM379.33,874.47c-.2-.88-.33-1.57-.52-2.25-2.87-10.08-3.94-20.24-1.86-30.65.28-1.39-.24-3.28-1.05-4.51-10.5-16.05-21.1-32.04-31.73-48-1.35-2.02-2.99-3.84-4.76-6.09-5.74,36.69,13.28,80.13,39.93,91.49ZM378.92,828.94c.44-.02.88-.04,1.31-.07.92-5.33,3.21-10.89,2.36-15.91-.85-5.02-4.85-9.5-7.6-14.45,4.19,2.12,8.41,4.26,12.64,6.41,2.91-20.07-8.58-33.04-21.88-45.16l.95-.65c4.14.86,8.29,1.72,13.48,2.79-6.82-10.27-14.88-17.36-24.55-24.25.35,2.08.56,3.06.68,4.06,1.21,9.93,2.81,19.84,3.46,29.8.49,7.47-.35,15.02-.35,22.54,0,2.61-.02,5.7,1.28,7.75,5.81,9.21,12.09,18.12,18.2,27.14ZM643.28,826.36c-1.87,2-3.84,3.91-5.59,6.01-13.91,16.67-31.56,27.97-52.08,34.16-17.64,5.32-29.47,16.63-38.25,32.03-.76,1.33-.81,3.05-1.35,5.22,5.98-6.51,10.79-12.98,16.82-17.97,6.04-5,13.3-8.54,20.02-12.71.23.33.45.67.68,1-2.57,5.47-5.14,10.94-7.55,16.08,12.23-5.61,24.09-11.05,35.94-16.5,2.27-1.05,4.54-2.12,6.76-3.28,17.57-9.25,21.94-26.07,24.6-44.04ZM293.11,759.89c-3.62,30.22,10.08,59.88,32.15,70.78-1.69-9.54-2.21-18.87,1.21-28.39,2.3,3.06,4.22,5.62,6.15,8.18.78-1.42.73-2.29.49-3.1-2.56-8.61-7.36-15.69-14.45-21.24-8.63-6.76-16.8-13.99-23.1-23.08-.57-.82-1.23-1.59-2.45-3.16ZM419.83,755.81c-1.75,7.64-3.25,14.69-5.01,21.66-1.38,5.44-1.68,10.38,1.48,15.65,2.27,3.78,3.43,8.5,4.02,12.95,1.12,8.43,3.76,15.99,9.32,22.52,4.78,5.62,9.37,11.4,14.07,17.09.65.79,1.51,1.41,1.45,1.36,0-5.54.03-11.46-.04-17.39,0-.67-.47-1.39-.87-2-8.95-13.8-10.83-29.34-11.52-45.29-.46-10.6-5.34-19.29-12.91-26.54ZM418.67,827.23c1.23,2.25,2.22,4.17,3.3,6.03,2.12,3.66,3.69,7.9,6.58,10.82,6.05,6.12,12.8,11.54,19.31,17.28-.34-.9-.52-2.32-1.28-3.24-5.68-6.8-11.17-13.79-17.3-20.15-8.63-8.96-13.35-19.28-15.26-31.64-2.34-15.13-11.03-26.46-24.65-33.76-.89-.48-1.93-.68-4.01-1.38,7.07,11,10.03,22.21,11.81,33.82.76,4.94,1.48,9.91,2.68,14.76,2.28,9.27,4.92,18.45,7.35,27.69,1.12,4.24,2.09,8.53,3.13,12.79.5-.06,1.01-.13,1.51-.19-1.06-11.46.84-22.27,6.85-32.84ZM532,902.01c5.02,2.3,5.87,1.94,8.48-3.59,8.2-17.41,20.81-29.9,39.49-35.68,1.08-.33,2.27-.85,3-1.66,6.9-7.58,10.92-16.54,12.89-26.55-9.7,4.72-19.12,9.25-28.5,13.87-7.25,3.58-13.54,8.23-18.08,15.18-7.74,11.85-13.07,24.72-17.29,38.43ZM561.43,330.35c3.08,0,5.73.17,8.35-.03,16.62-1.26,33.57-.98,49.79-4.25,31.81-6.4,57.11-24.46,77.92-49.02,1.44-1.7,2.43-3.79,3.63-5.7-2.93,1.28-5.08,3.21-7.22,5.15-4.05,3.66-7.94,7.51-12.15,10.97-26.48,21.81-56.65,33.52-91.21,33.03-8.81-.13-17.54-.71-25.46-4.93-1.29,5.23-2.45,9.91-3.65,14.78ZM692.29,842.04c-9.64,5.32-19.02,7.81-26.28,14.98-9.02,8.89-18.87,16.98-31.6,20.51-3.63,1.01-6.39,6.57-6.28,11.37,16.38-5.07,32.67-10.13,47.85-18.1,11.06-5.81,13.63-16.57,16.32-28.76ZM455.24,853.09c-1.4,8.49-2.88,16.03,1.15,23.07,6,10.51,15.4,17.74,25.22,24.4,1.45.99,3.55,1.27,5.38,1.4,4.32.3,4.92-.7,3.71-4.8-1.32-4.52-3.06-9.05-3.46-13.67-.5-5.8-3.65-9.06-8.23-11.64-1.93-1.08-3.82-2.23-5.81-3.18-6.11-2.9-11.41-6.72-15.1-12.54-.51-.81-1.32-1.42-2.86-3.04ZM391.66,881.14c.36-.31.72-.61,1.07-.92,1.04-10.13,2.08-20.26,3.12-30.39.42-.02.85-.04,1.27-.07.35,1.63.77,3.26,1.05,4.9.61,3.64.9,7.35,1.78,10.91,1.36,5.45,6.08,8.89,11.62,8.71-5.22-8.1-9.11-16.52-10.41-26.16-.94-6.98-2.82-13.89-4.93-20.62-1.33-4.25-3.85-8.12-5.83-12.16-.43.09-.85.18-1.28.28-1.99,9.16-4.05,18.31-5.97,27.49-1.91,9.17-1.45,18.31,1.93,27.03,1.52,3.93,4.34,7.35,6.57,11ZM604.16,819.88c.47.18.93.37,1.4.55-3.12,11.68-6.24,23.36-9.31,34.88,6.94-.14,11.26-4.2,11.23-11.45-.02-4.87-.12-9.77-.67-14.6-1.83-16.06-.7-31.2,10.79-44.11,3.91-4.39,3.3-10.33,2.83-16.31-7.47,8.64-15.18,16.41-21.51,25.18-7.24,10.03-8.96,21.75-6.72,34.88,4.33-3.27,8.15-6.15,11.97-9.03ZM384.86,464.53c2.47,1.42,4.81,3.2,7.44,4.19,5.26,1.96,10.37,1.28,15.19-1.77,12.82-8.1,17.97-20.97,21.46-34.77.2-.78-2.06-3.15-3.09-3.09-4.03.23-8.02,1.15-12.03,1.78-1.75.28-3.51.47-5.62.74-3,13.18-6.34,27.08-23.36,32.92ZM562.55,229.35c-2.59-2.15-5.62-3.53-6.57-5.78-.94-2.24.23-5.36.5-8.38-6.67,1.08-9.37-3.18-10.75-8.68q-7.74-.74-10.89-7.58c-8.9,2.71-8.07-5.09-10.24-10.64-1.3,4-3.21,7.13-6.98,5.93-2.76-.88-4.97-3.45-7.48-5.3-1.26,2.89-2.67,6.98-7.25,3.86-2.78-1.89-4.82-4.87-7.47-7.66.12,2.43.22,4.55.37,7.5-2.99-1.48-5.92-2.2-7.73-4.04-1.87-1.91-2.65-4.89-4.06-7.72-2.51,6.06-1.55,8.19,3.45,10.2,4.22,1.69,8.18,4.05,12.39,5.77,1.87.76,4.34,1.41,6.12.83,5.95-1.96,10.92-.24,15.91,2.83,7.71,4.75,13.56,11.33,18.76,18.55,6.73,9.34,13.28,18.8,20,28.14.98,1.36,2.5,2.33,3.77,3.47.39-3.52.71-6.36,1.02-9.19-6.53-3.25-6.88-5.04-2.87-12.12ZM534.85,854.12c4.23-3.11,7.75-5.71,12.3-9.06-1.34,5.3-2.39,9.43-3.64,14.36,1.25-.98,1.94-1.33,2.35-1.88,6.38-8.46,15.44-13.05,24.78-17.26,4.3-1.94,8.63-3.85,12.72-6.18,1.23-.7,2.29-2.72,2.33-4.17.03-1.2-1.3-2.82-2.47-3.6-2.26-1.51-4.83-2.57-7.28-3.82-4.91,11.08-9.64,11.92-22.19,4.18-2.48,7.24-5.52,8.1-17.67,4.82-1.72,7.26-3.61,14.45-1.25,22.6ZM455.99,837.03c3.42,8.89,5.94,17.68,14.82,22.52.4-1.49,1.03-2.62.94-3.7-.47-5.95-.79-11.95-1.77-17.83-1.8-10.72-3.69-21.44-6.24-31.99-.93-3.85-3.87-7.22-5.89-10.81-.74,4.17-.21,7.92-.87,11.45-1.02,5.47-2.87,10.79-4.34,16.18-1.77,6.5-2.91,13.01-.47,20.3,1.35-2.16,2.32-3.72,3.81-6.12ZM699.7,822.03l.77.15c-.85,8.04-1.69,16.09-2.57,24.49,21.4-11.01,30.59-24.19,28.5-41.26-8.24,3.88-16.35,8.42-24.97,11.57-10.31,3.77-11.1,13.74-16.35,20.77.48.37.97.74,1.45,1.11,4.39-5.61,8.78-11.23,13.17-16.84ZM645.45,807.88c-7.11,2.98-13.39,5.62-19.67,8.25,3.17-7.42,10.1-12.09,10.11-20.73-5.26,5.52-10.01,11.44-14.78,17.34-.81,1-1.51,2.36-2.57,2.81-4.16,1.78-6.01,4.81-5.78,9.23.34,6.32.7,12.63,1.08,18.95.03.52.32,1.02.62,1.96,13.81-9.91,24.88-21.47,30.99-37.82ZM709.85,417.92c-3.04,3.83-6.05,7.61-9.42,11.85,2.18.37,4.03.68,4.93.83.91-2.8,1.04-5.39,2.4-6.76,1.45-1.47,4.06-1.79,6.6-2.78-3.35-3.74-2.34-7.35-2.15-8.81-1.82-2.14-3.64-4.28-5.11-6.01-.93,2.48-3.88,4.06-8.79,2.39-5.32-1.81-5.28-5.49-4.33-8.45-3.58-.36-8.26.5-9.8-1.32-1.88-2.22-1.13-6.68-1.53-10.2-1.66-.91-3.95-2.16-6.28-3.44,2.44-3.8,4.46-6.93,6.86-10.66-6.29-.35-6.67-4.03-6.34-8.18.41-5.25.79-10.5,1.18-15.75.13-1.77.41-3.54.38-5.3-.03-2.3.97-3.18,3.21-3.07.92.05,1.87-.31,2.64-.45-.98-5.83-1.9-11.31-2.82-16.79-1.13.86-1.56,1.63-1.77,2.45-4.39,17.45-7.03,35.11-4.44,53.06,1.04,7.21,2.87,14.53,5.73,21.2,3.06,7.15,8.54,12.81,16.53,14.95,1.65.44,4.06.3,5.34-.63,2.9-2.13,4.75-1.47,6.99,1.87ZM450.28,881.65c-6.03-16.64-18.7-27.25-30.85-38.24-5.87,15.46,3.71,42.09,17.41,48.44-1.5-7.66-3.01-15.42-4.52-23.17.38-.05.75-.11,1.13-.16,5.61,4.38,11.22,8.75,16.83,13.13ZM326.86,420.73c6.24.26,9.58,3.16,8.94,9.97,2.29-1.07,3.65-1.71,5.18-2.42-3.41-4.19-6.52-8.01-9.73-11.95,1.53-1.47,2.57-2.46,3.73-3.57,6.17,4.88,11.61,3.15,16.9-1.3,6.1-5.13,9.98-11.67,11.81-19.29,3.76-15.71,3.4-31.62,1.23-47.49-.99-7.2-2.82-14.28-4.27-21.42-.39.07-.79.14-1.18.21-.97,5.85-1.95,11.7-2.98,17.88,4-.53,5.53.85,5.71,4.48.26,5.57.89,11.14,1.66,16.67,1.13,8.11,1.22,8.14-5.51,11.98,1.72,2.73,4.11,5.24,4.99,8.21,1.53,5.16-4.65,3.09-5.53,5.76.16,3.15.77,7.15-.95,8.97-1.71,1.82-5.73,1.45-9.11,2.12-.08,2.69.86,6.72-3.85,8.34-4.74,1.63-8.15,0-10-4.11-2.44,2.11-4.48,3.88-6.72,5.82,3.1,3.18,2.81,6.93-.32,11.13ZM492.73,859.81l-1.17.18c-.28,3.12-1.32,6.4-.71,9.35,2.14,10.36,4.81,20.6,7.37,30.87.21.86,1.01,2.2,1.61,2.24,3.5.22,7.03.28,10.51,0,.76-.06,2-1.68,2-2.58-.02-6.31-.16-12.63-.62-18.92-.11-1.54-1.34-3.24-2.51-4.41-4.31-4.35-8.85-8.48-13.23-12.76-1.21-1.18-2.16-2.63-3.24-3.96ZM419,473.39c1.26-3.22,1.61-7.11,3.7-8.64,2.15-1.58,5.99-.85,9.15-1.13-.68-2.32-1.67-5.1-2.29-7.96-.75-3.44,1.71-7.24,4.8-8.4,3.32-1.24,4.57.83,5.7,3.19,2.05,4.28,4.03,8.59,6.31,13.49,3.47-4.84,5.86-10.16,12.75-8.34-.23-4.47-.43-8.31-.6-11.73-8.12,2.09-9.6,8.89-11.31,15.63-8.64-8.62-8.43-21.07.13-28.81,3.45-3.12,3.2-4.87-1.14-7.56-1.45.92-2.83,2.22-4.46,2.73-5.61,1.75-7.28,5.8-8.62,11.22-4.27,17.27-13.1,31.17-30.99,37.32-.46.16-.81.61-.42.3,2.49,3.86,4.74,7.35,7.17,11.11,0-1.26.08-2.38-.01-3.48-.85-10.78.44-11.85,10.13-8.95ZM642.77,800.47c13.02-12.06,19.25-25.97,20.1-43.01-12.6,8.22-31.14,27.81-32.12,34.87,4.55-4.42,9.09-8.85,13.91-13.53-.6,6.9-1.2,13.73-1.89,21.67ZM621.03,474.43c2.12-.45,3.99-.79,5.84-1.26,4.21-1.07,6.07.74,6.11,4.86.02,2.38,0,4.76,0,7.3,2.42-3.59,4.55-6.74,6.66-9.88-3.57-1.73-7.71-3.09-11.11-5.49-11.4-8.04-17.74-19.74-20.81-32.91-1.52-6.53-5.04-9.69-10.61-12-2.75-1.14-4.76-1.04-6.03.88,2.96,5.22,6.82,9.83,8.19,15.08,1.33,5.09.09,10.85-.04,17.33,1.03-2.59,2.24-4.46,2.43-6.43.28-2.88,1.71-3.73,4.25-3.86,3.79-.19,5.97,1.61,5.89,5.93-.06,3.58-.96,7.14-1.48,10.71,11.25-.56,11.4-.43,10.69,9.72ZM536.1,860.73c-18.18,11.88-20.96,24.35-16.39,43.18,4.5.06,5.74-3.3,6.99-6.64,2.32-6.19,4.25-12.58,7.09-18.52,2.74-5.74,3.2-11.46,2.31-18.01ZM397.28,575.5c18.65-1.15,35.58,10.31,35.1,23.16-5.28-.67-10.34-3.36-16.02-1.44,8.45,3.66,16.9,7.31,26.53,11.48-.33-3,0-5.18-.84-6.7-1.91-3.44-4.1-6.83-6.71-9.76-4.07-4.56-6.97-9.43-7.07-15.73-.02-.95-.72-2.48-1.45-2.74-4.84-1.72-9.68-3.7-14.7-4.55-5.67-.96-11.13.09-14.83,6.29ZM624.42,878.93c-4.07,0-7.14-.83-9.46.14-9.89,4.17-19.64,8.7-29.24,13.49-2.41,1.2-4.1,3.84-6.57,6.26,1.43.33,1.86.56,2.22.49,11.55-2.24,23.1-4.47,34.62-6.82.88-.18,1.91-.96,2.35-1.75,1.91-3.45,3.63-7.01,6.07-11.82ZM459.37,220.78c4.02.93,7.92,1.25,11.28,2.76,4.7,2.12,1.34,6.79,2.11,10.25,5.44.74,12.96-5.32,15.06,4.99,1.9,9.32-6.57,8.33-10.51,11.07,1.71,3.07,3.44,6.15,5.14,9.2,6.06-4.07,11.9-12.83,13.31-20.05.56-2.84.4-5.1-2.51-6.7-10.32-5.65-20.56-11.42-31.02-17.24-.95,1.89-1.85,3.7-2.86,5.72ZM510.36,223.63c-3.26-6.72-5.1-13.99-9.58-18.77-4.49-4.78-11.41-7.58-17.68-10.29-5.51-2.38-10.45,1.44-11.25,7.24,15.19,2.82,25.72,13.48,38.51,21.82ZM506.86,812.87c5.19,19.61,4.64,24.94-4.93,42.94-1.86,3.5-.71,5.7,1.68,7.51,1.98-5.92,3.35-12.01,5.99-17.48,4.11-8.5,5.27-17.43,5.55-26.58.05-1.52-1.18-3.37-2.33-4.58-2.82-2.97-6.19-5.44-8.86-8.53-3.42-3.94-6.37-8.28-9.52-12.44-.34.15-.68.31-1.01.46,1.96,4.33,3.14,9.33,6.1,12.81,3.33,3.9,2.7,6.97.9,10.76-1.67,3.52-3.22,7.1-5.34,11.81,2.49-.82,4.34-.86,4.75-1.65,2.49-4.83,4.65-9.84,7.03-15.03ZM505.15,833.74c-.42-.25-.84-.5-1.26-.75-9.25,4.08-18.38,8.47-24.36,17.18-5.56,8.1-3.51,14.44,5.32,17.19,1.16-8.51,2.03-17.14,8.56-24.05,1.13,3.22,2.09,5.92,3.04,8.63l1.53.22c2.39-6.14,4.78-12.27,7.17-18.41ZM480.43,412.07c-1.52.6-2.96,1.46-4.5,1.7-2.24.36-5.77,1.2-6.55.17-1.2-1.58-1.2-4.79-.53-6.94,1.3-4.19,3.49-8.09,5.16-12.17.72-1.75,1.05-3.66,1.56-5.49-.56-.29-1.12-.58-1.68-.86-1.22,1.71-2.71,3.28-3.62,5.14-2.12,4.35-3.87,8.88-5.96,13.25-1.27,2.67-3.51,3.72-6.55,3.19-2.33-.4-4.72-.47-6.04-.58-.89,3.69-1.59,6.61-2.39,9.97,4.74-.27,5.77,3.68,6.92,8.67,4.99-9.1,11.54-12.21,20.77-10.03,3.57.84,4.46-1.11,3.42-5.99ZM146.24,526.2c.45,8.84.97,16.16,1.15,23.49.09,3.72,2.05,4.54,5.12,4.17,4.94-.59,9.87-1.27,14.96-1.93-5.39-7.69-10.9-15.65-16.58-23.49-.66-.92-2.29-1.14-4.65-2.23ZM498.5,374.9c-.56.08-1.13.16-1.69.24-.36,5.11-.72,10.22-1.1,15.57-2.23-.92-4.35-1.8-7.89-3.27,0,7.25-.18,13.65.12,20.03.08,1.65,1.61,3.27,2.61,4.82,1.37,2.12,3.03,4.06,4.26,6.25.9,1.61,1.31,3.49,1.99,5.39,2.88-.6,5.35-1.11,7.58-1.58-3.19-4.4-6.62-8.13-8.89-12.48-4.09-7.83-1.67-15.66,5.28-21.01,1.27-.98,2.4-3.6,2-5.02-.89-3.13-2.78-5.98-4.27-8.95ZM232.7,639.99c1.39,8.1,4.87,14.06,11.51,18.12,4.01,2.45,7.13,5.69,7.33,10.87.04.94.72,1.86,1.1,2.79l1.38-.21c0-4,1.05-8.38-.21-11.93-2.79-7.88-6.75-15.35-10.31-23.16-3.03.99-6.78,2.21-10.79,3.52ZM535.95,421.9c2.91,1.1,5.03,1.91,6.29,2.38,3.67-5.09,6.99-9.67,10.27-14.27.33-.46.66-1.04.67-1.57.05-6.57.03-13.14.03-20.32-3.65,1.19-5.96,1.95-8.18,2.68-.62-5.46-1.19-10.51-1.76-15.57-.46,0-.92,0-1.38,0-1.16,2.68-2.25,5.4-3.5,8.05-1.18,2.52-.91,4.4,1.72,5.82,7.09,3.84,7.22,10.49,6.71,17.28-.52,6.85-5.61,10.76-10.86,15.52ZM176.08,673.16c.46.03.93.06,1.39.09,2.05-3.72,5.45-7.29,5.85-11.18.68-6.57-.55-13.34-1.03-20.9-4.52,3.61-8.49,6.64-12.23,9.92-.71.62-.98,2.44-.65,3.44,2.1,6.25,4.42,12.43,6.67,18.62ZM484.29,835.58c.52.23,1.05.46,1.57.69.98-1.35,2.27-2.58,2.88-4.08,2.27-5.57,4.39-11.21,6.4-16.89.38-1.06.41-2.68-.14-3.58-4.84-7.77-7.56-16.23-9.01-25.23-.52-3.23-1.59-6.49-6.39-8.67,2.25,9.46,3.89,17.99,6.38,26.26,1.77,5.89,1.9,11.47.56,17.37-1.05,4.64-1.53,9.41-2.26,14.12ZM589.31,410.2c-11.7,1.39-11.13,2.43-16.32-10.7-1.44-3.64-3.18-7.15-4.78-10.72-.62.06-1.24.12-1.86.18-.11,1.42-.74,3.06-.25,4.23,1.81,4.33,4.1,8.47,6,12.77,1.54,3.47,2.23,6.99-1.29,9.19,5,3.83,9.8,7.51,14.08,10.79,1.86-2.16,4.11-4.79,6.11-7.12-.53-2.73-1.07-5.5-1.68-8.61ZM468.19,374.52c-.34-.3-.67-.6-1.01-.89-2.16,2.3-4.32,4.6-6.58,7-.53-1.19-.98-2.2-1.51-3.4-4.16,6.27-8.15,12.28-12.55,18.92,2.48,2.73,4.87,5.91,7.82,8.45,2.12,1.82,4.59,1.78,5.96-1.56,1.62-3.94,3.49-7.77,5.53-12.25-3.61-.88-6.76-1.65-10.38-2.53,4.44-4.78,8.59-9.26,12.73-13.73ZM404.05,429.55c-.38-.24-.75-.48-1.13-.72-2.08.93-4.16,1.86-6.37,2.85.83,3.07,3.17,5.34.76,9.07-2.66,4.13-6.06,1.58-9.24,2.53,0,4.16,2.61,9.03-3.31,11.47-4.97,2.05-6.53-2.49-9.27-4.37-2.27,2.38-4.45,4.67-6.71,7.04.36,1.9.18,4.63,1.42,6.31.97,1.31,3.72,1.3,5.67,1.88l.4-1.18c-1.75-2.2-3.51-4.4-5.62-7.05,1.99.36,3.32.47,4.58.84,9.95,2.94,16.43-1.03,21.06-9.26,3.38-6.02,5.23-12.91,7.76-19.41ZM653.42,444c-1.8,0-3.12.01-4.43,0-4.35-.05-7.43-3.35-5.84-7.42,2.07-5.32-1.38-5.5-5.15-6.76,2.02,9.95,4.61,19,12.13,25.79,4.09,3.7,8.71,5.32,14.24,3.75,1.54-.44,3.22-.39,5.78-.67-2.27,2.88-3.82,4.86-5.66,7.2h6.56c.68-2.83,1.29-5.37,1.91-7.94-1.18-.81-2.5-1.5-3.53-2.5-1.14-1.11-2.01-2.5-2.91-3.66-1.31,1.03-2.45,2.25-3.84,2.98-5.43,2.84-9.56.23-9.24-5.68.09-1.58.01-3.17.01-5.09ZM549.9,468.26c7.92,8.16,19.06,15.15,12.75,29.29,2.34,1.36,4.71,2.74,7.54,4.39-.49-4.33.22-7.86,4.33-9.02-.92-3.46-1.63-6.59-2.62-9.62-.37-1.13-1.17-2.51-2.15-2.97-4.54-2.11-6.55-5.17-4.61-9.24-5.05-.94-9.98-1.85-15.25-2.83ZM594.38,396.06c-4.58-6.83-9-13.42-13.45-20.06-3.6,6.33,2.94,8.6,5.24,12.85-3.74.86-7.1,1.64-10.83,2.5,1.51,3.71,2.7,7.19,4.36,10.43.82,1.59,2.55,3.86,3.81,3.82,2.17-.06,4.74-1.23,6.33-2.77,2.05-2,3.29-4.82,4.54-6.76ZM476.82,470.8c-.75,5-.78,4.97-5.72,9.36-.66.59-1,1.64-1.25,2.55-.82,3.02-1.54,6.07-2.25,8.93,1.8,2.46,3.89,5.32,6.03,8.24,1.32-.74,3.28-1.84,5.42-3.04-4.08-7.83-1.49-14.23,4.15-19.99,2.75-2.81,5.41-5.71,8.49-8.98-5.31,1.04-9.89,1.94-14.86,2.92ZM499.54,517.01c7.31-7.42,10.1-7.34,15.95,0q5.6,7.02,10.74-.75c3.66-5.53,9.33-6.06,13.51-1.16.73.85,1,2.09,1.48,3.16.41-.39.82-.78,1.23-1.17.51-2.4,1.01-4.79,1.55-7.34-5.12-.94-10.34-1.35-12.22-7.9-1.45,8.85-2.85,11.04-8.74,11.66-2.78.3-6.18-.38-8.5-1.86-2.27-1.45-3.52-4.48-4.93-6.41-3.73,1.71-7.63,3.5-11.69,5.37.44,1.74.98,3.87,1.61,6.4ZM298.19,623.36c.31-.57.61-1.14.92-1.71-3.59-2.35-6.94-5.3-10.84-6.92-6.39-2.67-13.14-4.48-20.13-6.79-6.26,7.86-4.29,9.47,3.41,12.37,1.98.75,4.37,1.19,6.42.86,6.93-1.12,13.73-1.81,20.22,2.19ZM186.94,670c.54.25,1.08.51,1.62.76,1.78-2.37,4.35-4.5,5.19-7.17,2.56-8.1,2.09-17.3,10.1-23.53-3.82-1.68-6.74-2.96-10.78-4.74-1.47,4.55-3.84,8.83-4.03,13.21-.32,7.19,2.33,14.53-2.1,21.48ZM296.96,557.02c-4.69-2.68-5.24-2.75-10.36.69-6.23,4.18-12.15,8.92-20.9,8.85,1.21,3.86,2.22,7.1,3.55,11.38,4.8-2.87,9.96-4.47,12.72-7.96,3.97-5.01,7.24-10.27,13.69-12.33.4-.13.76-.37,1.28-.63ZM331.47,817.74c-.96,1.32-1.2,1.52-1.25,1.75-.09.43-.15.89-.09,1.31,1.83,13.29,5.51,25.95,14.21,36.46,1.96,2.37,5.73,3.25,8.67,4.81-.45-2.23-1.45-3.49-2.46-4.74-7.65-9.43-12.35-20.23-15.18-31.99-.6-2.51-2.39-4.73-3.89-7.59ZM583.4,295.82c3.59.63,6.81,2.15,9.44,1.45,4.61-1.22,8.9-2.58,13.75-1.16,1.14.33,2.8-1.23,4.25-1.86,2.52-1.09,5-2.82,7.61-3.05,5.84-.53,7.51-1.57,8.92-7.17-3.03-.88-6.03-1.75-9.03-2.62-2.07,9.41-4.67,10.92-13.47,7.78-5.48,5.2-7.32,5.29-12.61.85-2.65,1.73-5.21,3.41-8.85,5.78ZM412.64,283.18c1.35,2.62,1.04,6.95,5.43,7.17,9.11.45,16.75,7.54,26.32,5.65.35-.07.8.34,1.19.53,4.14,2.05,7.69.55,11.02-1.35-2.89-1.62-5.6-3.14-8.5-4.77-5.75,4.4-8.17,4.07-11.63-1.09-3.83.25-7.82,1.72-10.1.35-2.53-1.52-3.49-5.64-4.9-8.2-2.96.57-5.76,1.11-8.83,1.71ZM148.12,562.82c7.29,4.25,17.14,2.35,22.3,11.27,1.8-3.99,3.26-7.24,4.69-10.42-10.22-6.63-23.06-7.13-26.99-.85ZM213.91,641.77c1.83,11.6,3.56,22.49,5.28,33.37.31-.02.62-.05.93-.07,1.57-11,3.13-22.01,4.74-33.3h-10.96ZM251.92,549.9c2.39,2.65,4.6,5.1,7.1,7.88,6.64-9.11,13.03-17.88,19.41-26.65-.45-.37-.89-.74-1.34-1.1-8.2,6.48-16.41,12.95-25.18,19.88ZM270.68,595.39c11.06-1.62,21.62-3.18,32.18-4.73-.76-1.15-1.43-1.4-2.12-1.5-7.99-1.14-15.99-2.26-23.99-3.38-1.93-.27-3.87-.52-5.8-.78-.15,2.18-.33,4.35-.42,6.53-.05,1.15.09,2.31.16,3.86ZM459.48,294.47c9.87,4.12,20.05-1.32,22.8-12.48-1.81.41-3.58.82-5.35,1.22-.31-.34-.63-.68-.94-1.01,4.58-6.1,9.17-12.2,14.25-18.98-3.43.2-6.02.35-7.35.43-.34,2.37-.2,4.21-.88,5.65-2.27,4.77-5.19,9.26-7.16,14.13-1.37,3.38-1.37,8.09-5.62,8.59-2.51.3-5.36-2.32-7.84-3.53-.46,1.43-1.18,3.7-1.91,5.99ZM186.59,549.64c-8.22-6.37-16.4-12.71-24.59-19.06-.31.35-.61.71-.92,1.06,6.18,8.38,12.36,16.77,18.68,25.33,2.29-2.45,4.27-4.58,6.83-7.33ZM629.28,271.1c.41,3.78.76,7.01,1.11,10.22,3.11-.86,4.53-2.81,4.7-6.32.15-3.18,1.34-6.3,1.95-9.48.57-2.94.97-5.9,1.36-8.36-6.85-1.23-12.97-2.33-19.29-3.46-.3,1.61-.66,3.53-1.16,6.23,6.17-2.58,11.53-2.19,14.69,3.03,1.89,3.12.27,6.58-3.37,8.13ZM259.64,622.58c-2.57,2.76-4.81,5.15-7.26,7.79,8.44,6.28,16.36,12.17,24.28,18.06.27-.3.54-.6.81-.9-5.84-8.18-11.69-16.35-17.83-24.95ZM554.67,253.38c3.13,4.29,5.51,8.02,8.38,11.33,2.29,2.64,5.08,4.8,2.25,9.58,4.02-1.81,6.95-3.14,10.89-4.92-1.4-.95-2.38-1.57-3.31-2.25q-8.55-6.25-.04-14c-3.03-.67-7.2-2.31-7.67-1.57-2.67,4.15-6.1,1.95-10.51,1.82ZM164.69,643.57c.49.46.98.92,1.47,1.38,6.79-4.94,13.59-9.88,20.42-14.85-2.53-2.55-4.76-4.79-7.55-7.61-4.07,7.71-11.13,13.12-14.33,21.08ZM401.96,257.21c.08-.44-.12,0-.05.38,1.27,6.48,2.46,12.97,3.98,19.39.33,1.4,1.89,2.51,3.48,4.49.19-2.4,0-3.68.43-4.69,1.61-3.74,1.01-6.55-2.03-9.56-2.07-2.05-.99-4.88,1.4-6.83,3.97-3.24,8.24-3.82,13.47-.64-.61-3.18-1-5.26-1.24-6.53-6.62,1.36-12.83,2.63-19.45,3.99ZM476.43,440.23c7.82,6.75,13.11,7.34,19.3,2.81,5.91-4.32,9.71-13.44,7.42-19.33-5.04,12-12.21,20.2-26.72,16.52ZM236.37,540.6c1.88,1.05,4.1,2.43,6.47,3.49.65.29,2.01-.11,2.58-.66,3.7-3.65,4.91-8.33,4.6-13.31-.07-1.15-1.71-2.77-2.93-3.14-1.3-.39-3.8-.03-4.33.86-2.35,3.95-4.18,8.21-6.39,12.76ZM467.78,898.75c-3.19-3.02-5.23-6.06-8.07-7.4-5.72-2.69-11.88-4.44-17.57-6.48.99,9.71,8.56,14.26,25.64,13.87ZM169.49,602.55c-2.29.93-4.57,1.74-6.76,2.76-6.98,3.22-7.6,5.08-4.53,11.71,5.2-1.43,10.28-2.83,15.39-4.24-1.25-3.13-2.56-6.39-4.09-10.23ZM404.21,417.54c.43-.02.85-.03,1.28-.05-.4-13.72,1.36-27.66-4.03-41.01-2.38,10.89-4.7,21.55-7.31,33.52,1.73-3.47,3.12-5.73,4-8.18,1.17-3.24,3.09-3.87,6.06-2.63v18.34ZM150.77,586.15c1.41,2.9,2.07,6.63,3.68,7.11,4.39,1.29,9.18,1.2,14.06,1.68v-10.92c-5.49.66-10.77,1.29-17.74,2.12ZM189.84,543.79c-1.18-13.33-6.38-20.28-20.18-15.67,6.68,5.19,12.97,10.07,20.18,15.67ZM565.02,440.01c6.15-3.41,2.69-9.8,4.99-16.01,4.39,4.51,8.19,8.42,11.66,11.99-.19-8.28-6.9-14.02-15.46-13.13-3.54.37-7.18-.23-11.17-.41.13,1.51.28,3.27.43,5.03.35-.42.7-.85,1.04-1.27,2.47.76,5.45.9,7.3,2.42,3.69,3.03,3.43,7.15,1.21,11.38ZM563.54,441.35c-2.1,0-3.43.12-4.73-.02-6.44-.71-12.71-1.44-15.85-8.64-1.21-2.79-3.76-5-6.26-8.21-.05,8.73,5.63,18.16,12.03,20.64,5.41,2.1,10.21.75,14.81-3.78ZM473.36,438.7c.67-.1,1.34-.2,2.02-.3-.13-1.1-.25-2.19-.41-3.29-.72-4.91,2.9-9.27,7.79-8.82,4.41.41,3.44-1.96,3.23-3.53-4.18,0-8.02.49-11.67-.1-7.67-1.24-14.98,5.09-14.75,12.47,3.68-3.2,7.74-6.73,12.16-10.58.64,5.5,1.14,9.82,1.64,14.14ZM556.43,270.38c1.88,5.77,4.12,10.44,4.79,15.32.85,6.16,4.66,8.66,9.75,9.7,3.32.68,6.88.13,10.75.13-1.33-2.92-2.22-4.86-3.19-6.98-.8.69-1.68,1.43-2.55,2.18-3.15,2.72-6.24,2.25-8.31-1.41-2.17-3.82-4.37-7.64-6.22-11.62-.59-1.28-.09-3.06-.09-5.29-.94-.39-2.64-1.08-4.94-2.03ZM197.03,543.35c2.71-.96,5.69-2.01,8.57-3.03-.93-11.63-4.77-15.24-12.69-12.58,1.32,5.01,2.64,10,4.11,15.61ZM646.2,408.42c-2.15-10.87-4.19-21.15-6.22-31.44-.28-.09-.56-.19-.84-.28-1.33,8.03-2.66,16.06-3.95,23.88,2.5-.48,5.09-1.59,5.61-.96,2.03,2.44,3.42,5.42,5.4,8.81ZM507.21,481.14c-.42-.18-.84-.36-1.26-.54-2.97,5.93-6.26,11.73-8.77,17.85-1.27,3.09.96,5.39,4.05,6.68,6.88-7.05,4.83-15.89,5.97-23.99ZM423.25,890.1c.23-.37.47-.73.7-1.1-1.97-2.04-3.59-4.94-5.99-5.93-5.5-2.28-11.39-3.62-17.26-5.39-.98,2.25-2.83,4.65,1.13,5.89,7.12,2.24,14.28,4.36,21.42,6.53ZM540.93,505.3c5.38-3.43,1.78-16.24-6.91-23.74,2.64,8.46-.28,17.46,6.91,23.74ZM594.55,463.06c.67-7.73-3.84-14.69-12.21-19.46v13.16c6.41-2.09,9.5,1.67,12.21,6.3ZM493.15,474.75c-6.25,3.87-10.13,8.58-10.85,15.34-.13,1.23.9,3.1,1.97,3.78.88.57,2.9.24,3.88-.45,1.09-.77,1.94-2.32,2.24-3.68,1.03-4.69,1.77-9.44,2.77-14.99ZM601.29,362.7c-4.6,9.99-5.48,19.98-5.14,30.35,4.17-.76,5.34-2.94,5.22-6.64-.26-7.65-.08-15.32-.08-23.71ZM446.31,393.11c-1.72-10.26-3.29-19.69-4.87-29.12-.58.03-1.16.07-1.75.1-.21,1.65-.64,3.3-.6,4.94.15,5.41.84,10.84.61,16.23-.18,4.07,1.17,6.35,6.6,7.85ZM458.52,207.4c1.67,1.78,2.89,3.23,4.27,4.5.62.57,1.97,1.29,2.29,1.04.77-.6,1.51-1.7,1.58-2.65.38-5.34.56-10.69.85-16.87-1.82-.12-4.55-.3-7.99-.52,2.89,5.56,5.55,10.5-.99,14.51ZM548.03,475.63c4.76,5.74,0,15.62,8.63,19.84,4.44-7.32.76-15.86-8.63-19.84ZM380.17,476.15c7.18-3.19,10.81-.19,11.58,7.45,2.75-3.28,4.84-5.78,6.54-7.81-6.57-2.9-13.01-5.73-19.52-8.6.42,2.69.87,5.55,1.4,8.96ZM556.43,900.81c.35.68.71,1.37,1.06,2.05,3.55-.82,8.13-.55,10.39-2.72,2.94-2.82,2.88-7.62.84-12.77-4.47,4.88-8.38,9.16-12.29,13.43ZM214.1,537.95h10.62c-.32-2.79-.47-5.24-.91-7.65-.63-3.49-3.55-3.87-6.12-3.38-1.18.23-2.44,2.32-2.86,3.79-.61,2.18-.51,4.56-.74,7.24ZM650.43,484.42c1.05-8.55,1.54-8.87,11.5-8.19.14-2.62.28-5.23.4-7.34-6.57,2.63-12.81,5.12-18.95,7.57,1.85,2.08,4.21,4.76,7.05,7.96ZM655.41,432.49c6.27,5.37,2.63,12.39,4.01,18.66,1.12-1.64,1.96-3.43,1.61-4.95-.88-3.79-.23-6.49,4.23-7.47-2.49-3.81-4.16-7.72-9.33-7.43-1.58.09-3.19-.24-4.92-.4-.61,1.33-1.74,3.37-2.45,5.55-.27.84.4,1.98.64,2.99.8-.46,1.83-.73,2.36-1.4,1.43-1.8,2.65-3.78,3.86-5.55ZM150.73,580.74c4.56-.86,8.78-1.65,13.05-2.45-1.24-4.39-7.33-7.15-14.45-7.02.44,3.01.88,6,1.39,9.47ZM374.57,437.4c-7.93.35-9.46,7.52-15.19,10.66,3.63,1.71,6.18,2.92,8.77,4.13,2.1-4.84,3.95-9.09,6.42-14.79ZM668.82,437.2c-.73,6.6,2.7,10.77,4.64,16.22,3-1.87,5.52-3.45,7.94-4.96-4.13-3.69-7.91-7.07-12.59-11.25ZM427.49,418.32c1.01,2.5,1.91,4.72,2.97,7.36,3.17-1.38,5.92-2.4,8.5-3.75,2.57-1.34,2.76-2.98-.1-4.33-3.67-1.74-7.3-1.99-11.38.72ZM256.72,526.67v11.27c4.54-3.6,8.3-6.57,12.05-9.54-.17-.38-.35-.75-.52-1.13-3.72-.19-7.44-.39-11.53-.6ZM550.01,498.2c-.67,3.36-1.28,6.47-1.89,9.54,2.95,1.2,5.65,2.3,8.36,3.4-2.26-4.4,2.74-12.13-6.47-12.94ZM611.81,426.44v-8.58c-3.77.08-7.54.15-11.98.24,2.32,6.55,7.5,5.85,11.98,8.33ZM162.3,634.26c3.61-5.15,6.49-9.27,9.37-13.39-.29-.42-.57-.83-.86-1.25-3.62,1.48-7.23,2.95-11.01,4.49.81,3.29,1.49,6.06,2.5,10.15ZM483.52,212c-7.67-6.37-10.46-6.33-15.13.21,4.69,2.86,9.71,2.79,15.13-.21ZM655.99,180.73c1.16-7.73-1.33-9.94-11.78-10.6,3.47,4.37,4.87,10.18,11.78,10.6ZM491.5,498.63c-2.43.57-4.34,1.01-5.81,1.36v10.28c2.41-.86,5.02-1.79,7.86-2.8-.62-2.66-1.33-5.74-2.05-8.84ZM526.1,848.48c-1.17,4.63-2.35,9.26-3.52,13.89,10.29-7.36,10.16-5.37,3.52-13.89ZM384.26,181.9c3.87-4.09,7.2-7.61,10.53-11.13-.27-.34-.55-.67-.82-1.01-2.12.87-4.19,1.97-6.38,2.57-4.5,1.22-5.85,3.8-3.33,9.57ZM621.57,791.88c-8.36,9.6-8.79,11.22-2.85,16.23.94-5.36,1.87-10.62,2.85-16.23ZM558.96,406.6c3.08,1.16,5.69,2.15,9.41,3.56-1.92-4.11-3.41-7.29-5.24-11.2-1.69,3.09-2.87,5.26-4.17,7.64ZM397.09,414.8c-4.71,6.09-4.62,7.21.6,11.34,2.57-3.55,2.48-5.93-.6-11.34ZM544.4,487.31c1.58-4.19-3.31-14.16-7.62-15.58,2.54,5.19,5.08,10.39,7.62,15.58ZM446.64,407.27c.26-.26.53-.53.79-.79-2.24-3.23-4.49-6.46-7.05-10.14-1.34,2.1-2.25,3.52-3.32,5.2,3.44,2.06,6.5,3.9,9.57,5.74ZM470.88,468.28c-2.93-2.2-5.51-4.15-8.2-6.17-1.09,2.87-2.05,5.39-3.11,8.17,3.8-.67,7.29-1.29,11.31-2ZM570.81,468.93c4.05.5,7.36.91,11.17,1.38-1.54-2.9-2.79-5.27-4.07-7.68-2.35,2.08-4.39,3.9-7.1,6.3ZM541.19,816.88c-.64.09-1.29.19-1.93.28.4,2.82.29,5.86,1.42,8.35.54,1.19,3.41,1.33,5.23,1.95.2-.41.4-.81.61-1.22-1.77-3.12-3.55-6.24-5.32-9.36ZM594.24,406.22c.23.49.47.97.7,1.46,2.91-1.73,5.81-3.46,9.45-5.62-2.12-1.82-3.35-2.88-4.77-4.09-1.88,2.88-3.63,5.57-5.39,8.26ZM495.12,485.87c.7.25,1.4.5,2.1.75,2.12-4.72,4.25-9.44,6.37-14.16l-2.29-1c-2.06,4.8-4.12,9.6-6.18,14.4ZM702.9,195.93c-.62,3.17-1.17,5.98-1.71,8.72,3.36,1.12,4.76.33,5.63-2.34,1.1-3.39-.67-4.77-3.92-6.38ZM482.33,406.17c-1.55-2.57-2.69-4.48-4.45-7.4-1.58,3.93-2.75,6.84-4.34,10.82,3.59-1.39,5.86-2.28,8.79-3.42ZM645.08,416.37c-4.46,4.77-4.59,7.15-.59,9.81,1.25-1.73,2.5-3.47,3.74-5.19-1.12-1.65-2.03-2.97-3.15-4.62ZM377.19,438.47c4.88.64,6.82-1.89,6.95-8.34-4.57.79-5.97,4.14-6.95,8.34ZM337.99,196.38c-.61-.2-1.23-.39-1.84-.59-.85,1.41-2.48,2.87-2.38,4.22.14,1.93,1.52,3.78,2.37,5.67l1.85-.53v-8.77ZM569.23,417.72c.1-.48.19-.97.29-1.45-3.2-1.3-6.41-2.6-10.77-4.37.6,2.86.75,5.56,1.25,5.62,3.03.4,6.15.2,9.23.2ZM684.16,357.81c-.97,3.6-1.91,7.06-2.93,10.83,6.98-2.11,7.52-4.42,2.93-10.83ZM686.48,434.19c2.54,2.16,4.45,3.78,6.82,5.79.57-3.04,1.01-5.4,1.58-8.41-3.02.94-5.32,1.66-8.4,2.62ZM347.96,439.47c2.91-2.37,4.88-3.98,7.53-6.14-2.95-.89-5.11-1.54-7.53-2.27v8.41ZM389.24,429.1c-2.84,3.71-1.76,6.37.72,8.67.57.53,1.76.39,2.67.56.09-.89.53-1.93.21-2.63-.94-2.09-2.17-4.04-3.6-6.6ZM357.52,355.78c-4.3,6.1-3.96,9.2,1.77,11.82-.62-4.13-1.2-7.99-1.77-11.82ZM587.93,441.47c1.97-.98,3.38-1.68,5.36-2.66-2.16-2.47-4.04-4.63-5.93-6.79-.27.2-.55.4-.82.6.43,2.73.85,5.45,1.38,8.84ZM452.9,441.53c.66-3.65,1.14-6.33,1.85-10.34-2.85,2.55-4.72,4.23-6.84,6.13,1.65,1.39,2.96,2.49,4.98,4.2ZM529.37,485.91c.39-.09.77-.19,1.16-.28-.98-4.29-1.96-8.58-2.94-12.88-.41.1-.83.2-1.24.3-1.19,4.83.18,9.03,3.02,12.85ZM702.9,371.1c.77,3.36,1.37,5.99,2.15,9.44,1.88-2.56,3.22-4.39,4.91-6.69-2.39-.93-4.26-1.65-7.06-2.74ZM624.41,261.01c-1.71,2.98-2.97,5.18-4.23,7.38,2.43-.85,4.86-1.68,7.27-2.57.13-.05.12-.51.28-1.29-.69-.74-1.58-1.68-3.31-3.52ZM230.85,534.72c.45.07.9.15,1.35.22,1.19-2.41,2.37-4.82,3.76-7.65h-6.22c.4,2.72.76,5.07,1.11,7.43ZM338.17,371.95c-.33-.3-.66-.6-.99-.9-1.79.73-3.58,1.47-5.83,2.39,1.7,2.1,3,3.72,4.8,5.94.83-3.04,1.42-5.24,2.02-7.43ZM504.48,521.81h7.16l.87-1.39c-1.44-1.68-2.88-3.36-4.32-5.04-.55.43-1.09.86-1.64,1.29-.63,1.56-1.26,3.13-2.07,5.14ZM537.34,522.11c-1.49-2.37-2.56-4.09-4.05-6.47-1.59,2.52-2.65,4.19-4.09,6.47h8.14ZM561.28,431.54c-.41-.28-.83-.55-1.24-.83-1.85.84-3.69,1.69-5.54,2.53-.03.47-.06.94-.09,1.41,1.81.56,3.63,1.11,5.44,1.67.48-1.59.96-3.19,1.44-4.78ZM575.22,276.07c-3.89-1.09-5.68.97-2.46,11.09.87-3.92,1.62-7.29,2.46-11.09ZM490.37,218.89c4.07,2.23,8.14,4.47,12.21,6.7-3.05-4.23-6.68-7.35-12.21-6.7ZM419.82,268.28c-1.72-6.36-3.52-6.92-8.03-2.97,2.63.97,4.9,1.81,8.03,2.97ZM307.98,376.19c2.92-1.02,4.97-1.74,7.03-2.46,0-.34.02-.67.03-1.01-1.97-.81-3.93-1.62-6.2-2.55-.29,2.02-.48,3.42-.85,6.02ZM732.39,377.61c.46-.34.92-.68,1.38-1.03-.82-1.5-1.31-3.62-2.57-4.31-.93-.51-2.88.83-4.37,1.35,0,.4,0,.81,0,1.21,1.86.93,3.71,1.85,5.57,2.78ZM700.89,395.38c-.5,3.51-.89,6.23-1.3,9.17,4.5-2.16,4.64-2.93,1.3-9.17ZM445.64,414.76c-1.94-3.47-3.38-6.12-7.59-5.25.42,4.95,4.34,3.8,7.59,5.25ZM367.45,433.25c-.11-.34-.23-.68-.34-1.02-2.18.29-4.35.59-7.12.96,1.39,1.78,2.32,2.96,3.44,4.4,1.52-1.64,2.77-2.99,4.03-4.34ZM484.09,436.78c.61-.67,1.23-1.34,1.84-2.01l-2.89-3.67-2.82,2.61c1.29,1.02,2.58,2.05,3.87,3.07ZM672.1,432.98c2.79,2.19,4.68,3.68,6.77,5.32.81-1.38,1.51-2.58,2.44-4.17-3.04-.38-5.57-.69-9.21-1.15ZM513.76,482.93c.55-3.24,1.09-6.48,1.64-9.71-4.26,2.61-2.48,6.24-1.64,9.71ZM715.39,375.3c1.17,2.42,2.03,4.2,3.27,6.76.71-2.8,1.17-4.61,1.71-6.76h-4.98ZM596.17,413.08c.17.5.34,1.01.51,1.51,1.97-.67,3.99-1.23,5.86-2.12.27-.13-.18-1.8-.37-3.29-2.42,1.58-4.21,2.74-6,3.9Z"/>
    <path class="cls-1" d="M683.12,778.31c4.13-5.45,7.43-9.82,10.74-14.2-.51-.47-1.02-.94-1.53-1.4-7.35,7.2-14.7,14.4-22.9,22.44.95-3.03,1.51-5.05,2.21-7.03,2.38-6.67,4.54-13.43,7.28-19.94,7.72-18.33,21.56-29.45,40.86-33.93,5.32-1.23,10.79-2.09,15.86-4,5.42-2.05,10.44-5.13,15.63-7.79.87-.44,1.66-1.03,3.19-2-2.42,17.22-8.4,31.89-21.02,43.01-14.12,12.44-31.21,19.23-50.33,24.84ZM706.03,746.18c-1.9,7.19-3.42,12.94-5.01,18.97,19.9-4.78,43.25-27.49,42.55-41.46-10.12,3-20.19,5.77-30.11,8.98-11.83,3.83-20.19,11.92-26.1,22.67-.8,1.46-1.25,3.11-1.86,4.68.23.15.46.29.69.44,6.25-4.5,12.51-9,19.84-14.28Z"/>
    <path class="cls-1" d="M386.52,722.89c-1.34,8.22-2.66,16.37-3.98,24.52-.49.01-.98.02-1.46.03-.44-1.12-1.09-2.2-1.3-3.36-1.48-8.18-5.64-14.88-11.66-20.37-13.09-11.95-14.4-26.69-9.17-42.23,3.59-10.65,8.96-20.7,13.53-31.01.51.09,1.01.19,1.52.28.34,3.8,1.09,7.63.93,11.41-.4,9.37,3.28,17.18,8.32,24.67,4.52,6.73,8.93,13.54,13.09,20.5,8.3,13.88,6.62,27.54-1.93,41.66-1.98-9.32.11-19.41-7.87-26.1ZM369.07,671.91c-11.5,20.36-7.34,41.7,10.65,53.51-1.37-6.12-2.59-11.62-4.07-18.24,3.84,2.27,7.1,3.87,9.98,5.98,3.03,2.22,5.7,4.94,8.53,7.44-4.76-18.17-19.29-30.87-25.08-48.7Z"/>
    <path class="cls-1" d="M762.31,755.23c2.61-2.1,5.14-4.3,7.84-6.27,3.89-2.84,6.25-6.62,7.25-11.25,1.08-5.04,2.18-10.08,3.02-15.17,2.98-18.08,13.71-30.05,29.88-38.44-.95,5.37-2.61,10.28-2.51,15.15.17,8.07,1.31,16.14,2.31,24.18,2.29,18.41-6.79,32.95-24.74,38.42,1.47-5.3,2.84-10.26,4.22-15.22-.28-.27-.57-.54-.85-.81-7.11,7.68-16.52,8.97-26.42,9.41ZM784.02,741.82c3.08-4.89,6.17-9.78,9.25-14.67.29.2.58.4.87.59.81,6.63,1.63,13.27,2.55,20.83,4.29-5.52,7.51-10.81,7.25-16.96-.47-11.08-1.79-22.11-2.81-33.68-14.51,11.47-14.32,28.21-17.11,43.88Z"/>
    <path class="cls-1" d="M249.77,697.55c.44,1.16,1.07,2.28,1.29,3.47,1.79,9.53,6.43,17.15,14.04,23.3,8.05,6.51,13.16,15.03,14.98,25.38,1.47,8.36,1.09,16.21-5.9,22.95-2.36-6.1-3.77-12.77-11.1-16.12.63,2.9.75,6.06,2.04,8.63,1.33,2.66,3.79,4.76,6.04,7.43-16.96-1.34-27.89-9.79-29.67-28.34-1.31-13.63,3.01-26.57,5.71-39.68.49-2.36,1.14-4.68,1.71-7.03h.87ZM251.06,719.78c-5.83,14.9-5.11,35.5,5.85,41.61.66-8.45,1.33-17.01,2.01-25.57.43-.1.86-.21,1.29-.31,2.64,8.55,6.1,16.52,14.45,21.52-.89-17.18-11.96-27.5-23.6-37.24Z"/>
    <path class="cls-1" d="M482.91,303.68c-.96,11.74.77,21.99,8.32,31.39-2.4.17-3.96.49-5.49.36-20.28-1.63-40.78-1.97-60.78-5.29-36.3-6.03-64.64-25.97-86.97-54.81-3.07-3.97-3.37-11.56-.62-19.56,3.73,4.08,7.03,7.71,10.36,11.32,13.94,15.13,29.85,27.63,48.61,36.32,20.66,9.57,42.39,13.6,65.01,11.43,5.14-.49,10.12-3.5,14.97-5.77,2.15-1.01,3.81-3.07,6.59-5.4ZM477.9,316.61c-54.71,11.02-98.24-9-136.2-46.39,1.02,2.41,2.37,4.41,3.9,6.24,19.5,23.39,43.55,39.99,73.04,48.1,6.77,1.86,13.87,2.87,20.88,3.49,13.62,1.2,27.29,1.86,41.37,2.76-1.12-5.3-2.14-10.14-3-14.21Z"/>
    <path class="cls-1" d="M659.35,211.83c1.97-.96,3.5-1.86,5.13-2.46,4.11-1.52,8.3.11,11.09,4.17,2.69,3.92,2.85,8.25-.37,11.25-2.36,2.2-1.3,3.85-.26,5.74,6.87,12.47,2.74,23.82-3.67,35.08-1.56-9.61-1.88-19.53-7.93-27.61-2.68,1.35-4.92,2.83-7.38,3.63-4.03,1.3-7.58,0-10.39-3.11-2.73-3.02-3.54-6.53-1.63-10.21,1.18-2.28,1.02-3.88-.63-5.91-4.23-5.22-3.85-10.32.69-13.79,4.93-3.76,10.78-2.92,14.73,2.12.26.33.42.75.63,1.11ZM664.86,224.39c.84-.37,2.37-.71,3.42-1.6,1.32-1.12,2.98-2.61,3.15-4.09.15-1.37-1.2-3.83-2.39-4.2-1.46-.45-3.8.33-5.09,1.39-2.41,1.98-4.33,4.54-7.07,7.53-.48-2.04-.72-3.4-1.12-4.72-.55-1.79-.89-3.78-1.95-5.22-.76-1.04-3.15-2.23-3.76-1.81-1.66,1.14-3.02,2.96-3.91,4.8-.26.54,1.21,2.34,2.25,3.01,2.13,1.38,4.51,2.4,7.53,3.95-2.09,1.75-3.8,2.62-4.61,4-1.18,2.01-2.16,4.38-2.27,6.64-.04.85,2.65,2.62,4.03,2.55,1.9-.1,4.36-1.06,5.47-2.5,3.33-4.34,4.37-4.69,7.76-.49,2.29,2.83,4.18,5.98,6.26,8.98l1.51-.87c-3.03-5.72-6.06-11.44-9.19-17.36Z"/>
    <path class="cls-1" d="M369.59,226.72c-4.97-4.82-5.67-10.24-2.13-15.11,2.46-3.38,8.97-3.79,14.79-.76,3.36-4.5,7.8-5.95,13.09-3.56,3.37,1.53,6.09,3.76,5.82,8-.21,3.31.48,7.13-4.74,8.02,2.71,5.88,4.97,11.8-1.52,16.29-5.68,3.93-10.86,1.95-15.4-2.65-6.21,8.6-6.72,18.43-7.9,28.69-7.2-11.07-11.71-23.87-2.01-38.92ZM385.03,223.19c-1.56-2.16-2.28-3.37-3.21-4.39-1.57-1.73-3.08-3.6-4.96-4.93-2.55-1.81-4.11-.44-5.46,2.1-1.53,2.87-.47,5.06,1.52,6.6,1.15.89,3.26.54,5.26.79-2.19,3.47-4.32,6.33-5.87,9.47-1.49,3.01-2.39,6.32-3.55,9.5.43.18.85.36,1.28.55,1.21-2.31,2.08-4.9,3.72-6.84,1.85-2.18,4.25-4.07,6.78-5.35.56-.28,2.69,2.51,4.08,3.91,2.22,2.23,4.78,3.35,7.35.94,2.3-2.17,3.49-4.86.29-7.44-1.93-1.56-3.92-3.04-6.43-4.99,3.27-1.32,5.46-1.61,6.7-2.85,1.47-1.47,2.92-3.77,2.87-5.68-.03-1.34-2.82-3.84-3.95-3.62-1.64.32-3.33,2.41-4.21,4.14-1.06,2.08-1.3,4.58-2.2,8.11Z"/>
    <path class="cls-1" d="M514.75,663.26c14.11,10.08,26.95,23.5,47.3,15.81-2.62,1.93-5.23,3.86-8.37,6.17,6.07,5.36,13.7,6.9,21.19,8.35,7.79,1.5,15.2.03,21.61-5.38-2.97,9.29-12.18,13.79-21.91,11.7-1.67-.36-4.26.08-5.4,1.2-10.19,10.08-19.85,11.44-32,3.66-3.8-2.44-6.91-5.95-10.49-8.75-1.26-.99-3.02-1.89-4.55-1.88-5.72.03-11.2-1.34-15.14-5.18-5.32-5.18-9.79-11.25-14.48-17.06-.83-1.03-.95-2.63-.66-4.4,3.7,3.54,7.37,7.12,11.1,10.63,9.38,8.8,19.84,13.68,33.25,9.29-2.01,1.78-4.03,3.56-6.03,5.34,9.99,10.46,27.17,13.53,38.3,6.48-2.14-1.53-4.07-2.94-6.03-4.32-3.73-2.62-7.36-5.41-11.28-7.72-1.61-.95-3.83-1.15-5.77-1.18-11.97-.2-26.55-10.84-30.64-22.75Z"/>
    <path class="cls-1" d="M627.53,615.28c-.9,7.9-4.24,14.19-10.58,18.79-1.99,1.44-3.54,3.49-5.37,5.34-.12-.31-.5-1.26-.9-2.27-15.96,3.55-30.59-.22-44.71-6.93.07-.47.15-.94.22-1.41,5.81,1.04,11.59,2.26,17.43,3.06,2.8.39,5.71.07,8.56-.04,1.46-.06,2.93-.61,4.36-.52,12.23.75,21.77-4.07,29.05-13.74.6-.8,1.3-1.52,1.95-2.27Z"/>
    <path class="cls-1" d="M490,683.52c5.79,5.38,11.36,11.03,17.45,16.03,3.2,2.63,7.13,4.91,11.09,5.93,4.59,1.18,9.59.82,13.78,1.08-4.16,4.73-13.62,6.67-20.99,3.26-11.26-5.2-17.44-14.78-21.33-26.31Z"/>
    <path class="cls-1" d="M573.13,660.53c-5.02,8.49-14.05,11.79-23.85,9.12-9.34-2.54-16.86-7.98-25.38-19.24,1.23.57,2.53,1.05,3.69,1.74,4.91,2.93,9.57,6.38,14.71,8.8,10.14,4.78,20.51,6.36,30.84-.42Z"/>
    <path class="cls-1" d="M620.57,668.46c-.54,8.08-6.02,15.18-13.59,16.42-5.53.91-11.47,1.01-16.96.02-5.81-1.05-11.3-3.82-16.85-6.33,17.05,2.61,34.05,5.89,47.4-10.12Z"/>
    <path class="cls-1" d="M503.68,627c5.09,4.88,9.24,10.28,9.86,17.4.44,5.1-3.12,8.25-8.05,6.9-3.59-.98-7.33-2.61-10.12-4.99-4.31-3.67-7.88-8.23-11.76-12.41.33-.34.65-.69.98-1.03,1.16,1.11,2.21,2.39,3.51,3.3,4.42,3.1,8.73,6.42,13.45,9,4.04,2.2,7.27-.32,6.59-5-.44-3-1.75-5.89-2.73-8.8-.5-1.48-1.14-2.92-1.72-4.37Z"/>
    <path class="cls-1" d="M457.13,688.19c6.2,7.38,12.32,14.05,17.67,21.28,2.43,3.29,3.5,7.64,4.89,11.61.41,1.16-.17,2.66-.95,4.23-1.06-8.73-8.14-12.25-13.55-17.26-5.63-5.21-7.56-12.11-8.07-19.87Z"/>
    <path class="cls-1" d="M487.74,751.8c-6.03-7.48-12.34-14.84-18.08-22.63-2.94-4-4.81-8.77-4.8-13.88.49-.34.98-.69,1.47-1.03.15.57.26,1.16.45,1.72,2.44,7.15,8.11,11.74,13.27,16.74,5.24,5.08,7.86,11.74,7.68,19.08Z"/>
    <path class="cls-1" d="M522.59,744.67c3.65,5.72,6.53,10.57,6.88,16.51.3,5.16.12,10.39.99,15.45.67,3.95,2.62,7.67,4.24,12.13-4.11-3.28-7.44-6.56-8.72-11.4-.71-2.7-1.25-5.49-1.5-8.27-.7-7.74-1.21-15.5-1.89-24.42Z"/>
    <path class="cls-1" d="M503.06,747.46c-1.29-6.72-5.69-10.83-10.77-14.71-6.11-4.68-9.35-12.55-9.52-21.66.88,1.07,1.48,1.78,2.06,2.5,3.76,4.71,7.46,9.46,11.28,14.11,4.71,5.72,9.53,11.36,6.93,19.75Z"/>
    <path class="cls-1" d="M627.96,573.34c-13.57,1.99-24.69,7.78-32.14,19.74-1.87-7.44,1.44-14.08,8.46-17.38,6.04-2.83,13.23-3.74,23.68-2.36Z"/>
    <path class="cls-1" d="M554.36,766.93c-2.78-2.49-5.26-5.47-8.4-7.36-6.56-3.94-10.26-9.41-11.29-16.93-.37-2.73-1.19-5.4-1.9-8.51,8.4,11.17,16.45,21.87,25.16,33.47-2.19-.49-2.95-.66-3.72-.82,0,0,.15.15.15.15Z"/>
    <path class="cls-1" d="M476.5,643.11c-1.2-5.29-2.28-10.09-3.37-14.89.33-.17.65-.35.98-.52,2.33,4.68,5.34,9.17,6.81,14.11,1.62,5.42-3.12,8.94-8.54,6.98-7.31-2.64-11.63-8.67-16.2-14.57,6.17,3.56,10.91,10.17,20.32,8.9Z"/>
    <path class="cls-1" d="M463.22,597.57c-2.49-1.86-4.06-3.09-5.67-4.25-2.57-1.84-5.21-4.37-7.53,1.88-.44-3.62-.7-5.81-1.02-8.52-1.4.93-2.3,1.53-4.54,3.02.18-4.02.32-6.96.48-10.53,8.59,3.91,15.9,7.82,18.28,18.4Z"/>
    <path class="cls-1" d="M538.96,547.64c-14.69,1.81-28.74,4.41-37.16,19.37-1.61-10.71,3.01-18.11,12.67-19.19,8.07-.9,16.32-.18,24.49-.18Z"/>
    <path class="cls-1" d="M240.68,607.49c2.08,3.37,3.68,5.95,5.27,8.54-.18.37-.37.75-.55,1.12-4.22-6.13-10.45-3.1-15.54-3.58-9.95-.94-20.13.52-30.28.99.95-1.93,2.32-4.72,4.01-8.15.85,1.8,1.41,2.99,1.46,3.1,8.67-.42,16.61-.87,24.55-1.12,1.21-.04,2.57.6,3.65,1.26,2.91,1.76,5.46,2.23,7.42-2.16Z"/>
    <path class="cls-1" d="M201.28,587c-1.4-6.78-5.28-7.47-9.7-8.13-2.44-.37-4.59-2.64-6.87-4.06.27-.52.53-1.05.8-1.57,2.85.52,5.69,1.12,8.55,1.54,3.46.5,6.97,1.3,10.41,1.13,4.56-.23,6.66,1.95,7.92,6.16-4.19-.37-8.95-2.97-11.11,4.94Z"/>
    <path class="cls-1" d="M234.41,601.15h-24.64c2.13-6.41,4.76-7.61,10.6-5.71,1.94.63,4.31.72,6.31.27,3.96-.89,6.58-.1,7.73,5.44Z"/>
    <path class="cls-1" d="M239.43,586.21c-.65-6.33-4.38-6.6-8.2-6.6.37-3.78,7.82-5.75,21.58-5.78-.49,2.83-1.51,4.57-4.77,5.13-1.94.34-3.65,2.23-5.35,3.57-.95.76-1.65,1.83-3.26,3.67Z"/>
    <path class="cls-1" d="M212.55,620.06c6.22-.3,12.08-.59,17.8-.87-2.41,6.01-12.1,5.97-17.8.87Z"/>
  </g>
</svg>